<?xml version="1.0" encoding="UTF-8" standalone="no"?>
<svg
   xmlns:dc="http://purl.org/dc/elements/1.1/"
   xmlns:cc="http://creativecommons.org/ns#"
   xmlns:rdf="http://www.w3.org/1999/02/22-rdf-syntax-ns#"
   xmlns:svg="http://www.w3.org/2000/svg"
   xmlns="http://www.w3.org/2000/svg"
   xmlns:sodipodi="http://sodipodi.sourceforge.net/DTD/sodipodi-0.dtd"
   xmlns:inkscape="http://www.inkscape.org/namespaces/inkscape"
   version="1.1"
   id="svg2"
   xml:space="preserve"
   width="475.89334"
   height="134.67999"
   viewBox="0 0 475.89334 134.67999"
   sodipodi:docname="AA_DTP_CMYK_russ.eps"><metadata
     id="metadata8"><rdf:RDF><cc:Work
         rdf:about=""><dc:format>image/svg+xml</dc:format><dc:type
           rdf:resource="http://purl.org/dc/dcmitype/StillImage" /></cc:Work></rdf:RDF></metadata><defs
     id="defs6" /><sodipodi:namedview
     pagecolor="#ffffff"
     bordercolor="#666666"
     borderopacity="1"
     objecttolerance="10"
     gridtolerance="10"
     guidetolerance="10"
     inkscape:pageopacity="0"
     inkscape:pageshadow="2"
     inkscape:window-width="640"
     inkscape:window-height="480"
     id="namedview4" /><g
     id="g10"
     inkscape:groupmode="layer"
     inkscape:label="ink_ext_XXXXXX"
     transform="matrix(1.3333333,0,0,-1.3333333,0,134.68)"><g
       id="g12"
       transform="scale(0.1)"><path
         d="M 3569.19,0 H 0 V 1010.1 H 3569.19 V 0"
         style="fill:#ffffff;fill-opacity:1;fill-rule:nonzero;stroke:none"
         id="path14" /><path
         d="m 521.848,399.742 h 35.429 v -200 h -35.429 v 200 0 0"
         style="fill:#f2cf04;fill-opacity:1;fill-rule:nonzero;stroke:none"
         id="path16" /><path
         d="m 521.848,600.445 h 35.429 V 399.742 h -35.429 v 200.703 0 0"
         style="fill:#ed1c24;fill-opacity:1;fill-rule:nonzero;stroke:none"
         id="path18" /><path
         d="m 521.848,799.758 h 35.429 V 599.773 h -35.429 v 199.985 0 0"
         style="fill:#231f20;fill-opacity:1;fill-rule:nonzero;stroke:none"
         id="path20" /><path
         d="m 367.004,747.184 c 0.898,-0.059 1.758,-0.106 2.656,-0.106 15.789,0 31.461,10.219 31.461,23.317 0,6.976 -3.133,11.859 -7.019,17.269 -2.278,-0.379 -4.344,-0.594 -5.977,-0.594 -7.156,0 -11.047,3.836 -11.328,7.606 0,3.39 2.766,5.961 7.043,5.961 6.648,0 18.758,-6.219 30.965,-6.219 -1.2,-0.914 -3.192,-1.871 -5.606,-2.77 7.16,-6.441 11.934,-15.074 13.762,-24.308 l 18.711,-29.938 c 3.133,-5.004 9.781,-14.828 19.781,-22.504 -12.086,0 -20.125,-0.281 -30.348,15.911 l -9.589,15.332 c -0.703,-1.981 -1.594,-3.918 -2.61,-5.813 l 19.063,-30.515 c 3.183,-5.071 9.746,-14.817 19.804,-22.512 -12.109,0 -20.117,-0.293 -30.363,15.89 l -16.414,26.289 c -1.219,-1.32 -2.519,-2.578 -3.887,-3.82 l 23.164,-37.058 c 3.196,-5.079 9.739,-14.786 19.805,-22.5 -12.109,0 -20.129,-0.293 -30.371,15.886 l -22.566,36.153 c -1.496,-0.946 -3.02,-1.856 -4.582,-2.715 l 27.55,-44.11 c 3.184,-5.07 9.715,-14.777 19.793,-22.5 -12.089,0 -20.125,-0.285 -30.339,15.918 l -28.379,45.411 c -1.68,-0.657 -3.399,-1.25 -5.129,-1.817 l 32.082,-51.34 c 3.113,-4.968 9.824,-14.843 19.773,-22.48 -12.09,0 -20.125,-0.281 -30.34,15.898 l -34.179,54.707 -1.047,-0.183 c -0.926,-2.95 -1.571,-5.715 -1.571,-8.489 0,-17.168 11.278,-32.343 24.825,-44.07 -0.879,-0.383 -2.383,-0.519 -3.782,-0.519 -2.781,0 -4.597,0.168 -5.867,0.382 3.145,-7.129 9.879,-16.339 13.281,-21.093 4.43,0.789 10.887,1.425 15.106,1.425 4.414,0 4.902,-2.597 4.902,-4.914 0,-4.004 -1.875,-7.214 -4.05,-9.004 -0.813,2.082 -2.461,4.805 -10.625,4.805 l -0.833,-0.039 c 2.403,-2.644 9.864,-8.68 9.864,-13.555 0,-3.211 -3.535,-8.046 -8.192,-8.046 0.293,1.046 0.243,2.003 0.243,2.714 0,3.926 -3.485,8.536 -6.434,11.75 0.074,-0.957 0.035,-0.839 0.035,-1.964 0,-9.317 -0.828,-13.583 -6.746,-13.583 -2.898,0 -4.902,1.583 -5.586,2.04 3.828,3.554 4.043,6.339 4.043,11.554 l -0.039,4.531 c -0.008,1.18 0.012,2.754 0.195,3.915 -2.121,0.293 -2.957,0.285 -4.597,0.285 0,0 -8.411,0.664 -10.422,-3.711 -2.274,2.09 -5.574,5.027 -5.574,8.308 0,2.161 1.003,4.582 5.32,4.582 1.64,0 6.797,-1.007 11.113,-1.007 -1.152,2.578 -6.316,10.117 -10.769,15.586 -0.688,-2.11 -1.75,-4.422 -4.094,-6.29 -0.32,3.516 -2.383,14.641 -7.879,21.133 -0.645,-4.383 -1.516,-8.886 -1.516,-18.386 0,-23.157 5.567,-40.247 17.383,-43.497 -1.531,-2.707 -4.785,-5.089 -8.152,-5.089 -4.328,0 -6.684,4.882 -9.082,9.504 -1.242,-3.411 -4.688,-11.75 -8.164,-11.75 -3.457,0 -6.907,8.339 -8.157,11.75 -2.402,-4.622 -4.753,-9.504 -9.082,-9.504 -3.367,0 -6.621,2.382 -8.144,5.089 11.797,3.25 17.375,20.34 17.375,43.497 0,9.5 -0.871,14.003 -1.516,18.386 -5.496,-6.492 -7.566,-17.617 -7.879,-21.133 -2.343,1.868 -3.41,4.18 -4.082,6.29 -4.465,-5.469 -9.621,-13.008 -10.785,-15.586 4.328,0 9.477,1.007 11.117,1.007 4.317,0 5.34,-2.421 5.34,-4.582 0,-3.281 -3.32,-6.218 -5.586,-8.308 -2.031,4.375 -10.429,3.711 -10.429,3.711 -1.629,0 -2.469,0.008 -4.59,-0.285 0.176,-1.161 0.215,-2.735 0.187,-3.915 l -0.031,-4.531 c 0,-5.215 0.195,-8 4.043,-11.554 -0.684,-0.457 -2.695,-2.04 -5.586,-2.04 -5.918,0 -6.766,4.266 -6.766,13.583 0,1.125 -0.031,1.007 0.047,1.964 -2.949,-3.214 -6.426,-7.824 -6.426,-11.75 0,-0.711 -0.046,-1.668 0.235,-2.714 -4.649,0 -8.184,4.835 -8.184,8.046 0,4.875 7.473,10.911 9.856,13.555 l -0.832,0.039 c -8.153,0 -9.813,-2.723 -10.625,-4.805 -2.176,1.79 -4.051,5 -4.051,9.004 0,2.317 0.496,4.914 4.91,4.914 4.231,0 10.664,-0.636 15.098,-1.425 3.398,4.754 10.129,13.964 13.281,21.093 -1.27,-0.214 -3.066,-0.382 -5.859,-0.382 -1.399,0 -2.918,0.136 -3.77,0.519 13.527,11.727 24.805,26.902 24.805,44.07 0,2.774 -0.633,5.539 -1.571,8.489 l -1.035,0.183 -34.179,-54.707 c -10.227,-16.179 -18.254,-15.898 -30.356,-15.898 9.961,7.637 16.652,17.512 19.777,22.48 l 32.083,51.34 c -1.731,0.567 -3.43,1.16 -5.118,1.817 l -28.379,-45.411 c -10.226,-16.203 -18.261,-15.918 -30.343,-15.918 10.066,7.723 16.601,17.43 19.773,22.5 l 27.57,44.11 c -1.582,0.859 -3.093,1.769 -4.589,2.715 l -22.579,-36.153 c -10.234,-16.179 -18.25,-15.886 -30.351,-15.886 10.07,7.714 16.613,17.421 19.797,22.5 l 23.164,37.058 c -1.367,1.242 -2.668,2.5 -3.891,3.82 l -16.414,-26.289 c -10.234,-16.183 -18.262,-15.89 -30.351,-15.89 10.05,7.695 16.621,17.441 19.796,22.512 l 19.063,30.515 c -1.016,1.895 -1.895,3.832 -2.609,5.813 l -9.59,-15.332 c -10.227,-16.192 -18.25,-15.911 -30.34,-15.911 10.008,7.676 16.641,17.5 19.781,22.504 l 18.703,29.938 c 1.828,9.234 6.602,17.867 13.758,24.308 -2.391,0.899 -4.402,1.856 -5.601,2.77 12.207,0 24.316,6.211 30.957,6.211 4.296,0 7.039,-2.563 7.039,-5.953 -0.262,-3.77 -4.161,-7.606 -11.317,-7.606 -1.625,0 -3.703,0.215 -5.988,0.594 -3.867,-5.41 -7.012,-10.293 -7.012,-17.269 0,-13.098 15.664,-23.317 31.485,-23.317 0.89,0 1.738,0.047 2.636,0.106 3.125,10.613 9.797,17.57 15.117,24.375 -6.386,2.324 -13.496,8.39 -13.496,11.136 0.801,0.473 13.039,-3.379 14.309,-3.722 0.254,-0.067 0.516,-0.082 0.809,0 1.496,0.449 2.734,2.625 2.734,2.851 -1.309,0.215 -8.973,1.211 -14.227,3.117 -3.988,1.457 -5.996,4.098 -5.996,5.106 1.27,0.203 6.129,-2.344 13.25,-2.344 2.637,0 3.157,0.113 5.774,0.43 -1.848,4.379 -5.305,8.082 -9.184,8.082 -1.57,0 -4.988,-0.981 -7.848,-2.41 -1.984,3.093 -3.742,7.164 -3.742,9.386 0,2.622 2.598,5.7 9.922,5.7 2.039,0 3.957,-0.176 5.735,-0.508 1.425,-0.27 2.625,-0.594 3.925,-1.098 -0.109,0.18 -0.168,0.563 -0.168,0.93 0,1.012 0.918,2.082 4.368,2.082 6.015,0 12.195,-1.981 19.765,-1.981 1.961,0 3.289,0.067 4.434,0.543 -0.489,-1.507 -2.617,-3.73 -4.571,-5.531 1.2,-1.644 4.336,-5.617 4.336,-12.027 0,-10.301 -6.796,-18.805 -6.796,-29.223 0,-6.187 4.761,-11.64 6.191,-14.894 z m -18.164,49.132 c 5.613,-1.093 9.433,6.075 4.101,7.36 0.743,-2.371 -2.851,-4.039 -2.851,-4.039 0,0 -1.367,3.168 0.406,4.972 -3.269,1.598 -4.09,-0.343 -4.156,-2.355 1.289,-1.719 2.117,-3.719 2.5,-5.938 z m -4.719,-11.058 c 1.035,2.387 2.434,5.226 2.434,8.355 0,8.649 -7.168,12.77 -16.77,12.77 -4.93,0 -7.422,-1.59 -7.422,-3.192 0,-1.597 1.629,-5.113 2.254,-6.199 1.77,0.789 4.985,1.727 6.836,1.727 6.594,0 11.516,-7.391 12.668,-13.461 z m -61.348,-15.367 c 0,8.398 5.469,14.734 8.567,18.523 l -2.082,0.481 c -2.938,-2.543 -11.211,-11.563 -11.211,-22.954 0,-19.949 20.078,-38.464 42.91,-38.621 -0.242,2.168 -0.391,4.465 -0.391,6.946 0,1.527 0.071,3.035 0.196,4.453 -20.176,0 -37.989,14.492 -37.989,31.172 z M 322.5,649.246 c -0.652,2.43 -1.301,4.199 -3.84,4.199 -1.297,0 -1.914,-0.226 -2.672,-0.507 -2.754,-7.59 -13.273,-21.836 -14.933,-24.036 -4.52,0.743 -10.891,1.543 -16.016,1.543 -1.211,0 -2.871,0.11 -2.871,-2.793 0,-1.66 0.742,-4.589 1.652,-5.574 2.254,2.664 6.172,3.485 10.985,3.485 1.886,0 4.148,-0.665 5.011,-0.868 -6.144,-6.211 -11.933,-11.379 -11.933,-14.836 0,-1.921 1.988,-4.461 3.68,-5.332 0,5.078 5.261,12.121 10.421,16.067 0,-0.703 0.243,-3.391 0.243,-6.281 0,-9.61 0.949,-11.493 4.648,-11.493 0.676,0 1.816,0.243 2.258,0.496 -1.992,2.286 -2.832,5.325 -2.832,11.008 0,1.649 0.066,3.203 0.066,4.531 0,2.528 -0.301,4.305 -0.488,5.711 1.406,0.176 4.617,0.657 6.973,0.657 5.031,0 8.144,-0.489 10.429,-2.754 1.629,1.23 3.438,3.582 3.438,5.183 0,2.317 -1.551,2.461 -3.192,2.461 -2.558,0 -4.64,-1.004 -14.297,-1.004 1.891,5.45 7.469,13.094 13.27,20.137 z m 57.637,-20.137 c -9.657,0 -11.746,1.004 -14.297,1.004 -1.629,0 -3.184,-0.144 -3.184,-2.461 0,-1.601 1.809,-3.953 3.438,-5.183 2.265,2.265 5.39,2.754 10.422,2.754 2.351,0 5.562,-0.481 6.98,-0.657 -0.195,-1.406 -0.476,-3.183 -0.476,-5.711 0,-1.328 0.046,-2.882 0.046,-4.531 0,-5.683 -0.839,-8.722 -2.824,-11.008 0.434,-0.253 1.574,-0.496 2.258,-0.496 3.691,0 4.641,1.883 4.641,11.493 0,2.89 0.23,5.578 0.23,6.281 5.168,-3.946 10.442,-10.989 10.442,-16.067 1.679,0.871 3.671,3.411 3.671,5.332 0,3.457 -5.789,8.625 -11.933,14.836 0.851,0.203 3.137,0.868 5.012,0.868 4.824,0 8.718,-0.821 10.996,-3.485 0.894,0.985 1.64,3.914 1.64,5.574 0,2.903 -1.664,2.793 -2.863,2.793 -5.137,0 -11.484,-0.8 -16.035,-1.543 -1.649,2.2 -12.18,16.446 -14.903,24.036 -0.789,0.281 -1.394,0.507 -2.695,0.507 -2.527,0 -3.183,-1.769 -3.836,-4.199 5.801,-7.043 11.375,-14.687 13.27,-20.137 z m 31.191,136.832 c 0,11.391 -8.293,20.411 -11.199,22.954 l -2.102,-0.481 c 3.094,-3.789 8.567,-10.125 8.567,-18.523 0,-16.52 -17.461,-30.883 -37.395,-31.153 0.149,-1.699 0.137,-3.199 0.137,-4.472 0,-2.364 -0.145,-4.7 -0.43,-6.926 22.617,0.402 42.422,18.797 42.422,38.601 z M 319.523,599.773 Z m 0,-0.156 z m 0.016,0.028 z m -0.008,0.089 v 0 0 0"
         style="fill:#231f20;fill-opacity:1;fill-rule:evenodd;stroke:none"
         id="path22" /><path
         d="M 668.977,786.063 V 737.68 c 15.121,0 22.402,10.304 22.402,24.64 0,14.227 -6.277,23.743 -22.402,23.743 z m -11.204,0 c -16.121,0 -22.398,-9.516 -22.398,-23.743 0,-14.336 7.281,-24.64 22.398,-24.64 z m 11.204,-57.239 v -8.281 h -11.204 v 8.281 c -23.183,0 -34.156,13.336 -34.156,33.387 0,22.059 14.559,32.254 34.156,32.254 v 6.941 h 11.204 v -6.941 c 19.597,0 34.16,-10.195 34.16,-32.254 0,-20.051 -10.977,-33.387 -34.16,-33.387"
         style="fill:#231f20;fill-opacity:1;fill-rule:nonzero;stroke:none"
         id="path24" /><path
         d="m 754.113,755.152 c 0,9.856 -5.047,15.567 -13.894,15.567 -9.184,0 -15.117,-6.379 -15.34,-16.574 h 29.234 z M 724.43,746.75 v -1.793 c 0,-11.426 6.16,-18.477 16.129,-18.477 7.504,0 12.207,4.141 13.214,11.649 h 10.528 c -0.449,-3.922 -0.899,-5.496 -2.129,-7.957 -3.695,-7.168 -11.758,-11.309 -22.063,-11.309 -17.136,0 -26.093,10.078 -26.093,29.348 0,17.582 8.058,30.016 26.765,30.016 15.68,0 24.192,-9.637 24.192,-27.332 0,-1.004 0,-2.465 -0.11,-4.145 H 724.43"
         style="fill:#231f20;fill-opacity:1;fill-rule:nonzero;stroke:none"
         id="path26" /><path
         d="m 818.238,768.816 h -20.492 c -0.226,-14.898 -0.789,-20.273 -2.469,-27.886 -1.004,-4.485 -2.238,-8.629 -5.039,-12.211 h 28 z m 7.731,-64.062 v 15.789 h -43.008 v -15.789 h -10.078 v 23.965 h 5.711 c 3.023,4.148 4.027,5.937 5.375,9.519 2.574,7.282 3.472,15.235 3.472,29.903 v 8.629 h 41.438 v -48.051 h 7.168 v -23.965 h -10.078"
         style="fill:#231f20;fill-opacity:1;fill-rule:nonzero;stroke:none"
         id="path28" /><path
         d="m 884.055,755.152 c 0,9.856 -5.047,15.567 -13.895,15.567 -9.183,0 -15.117,-6.379 -15.34,-16.574 h 29.235 z m -29.684,-8.402 v -1.793 c 0,-11.426 6.16,-18.477 16.129,-18.477 7.504,0 12.207,4.141 13.215,11.649 h 10.527 c -0.449,-3.922 -0.898,-5.496 -2.129,-7.957 -3.695,-7.168 -11.758,-11.309 -22.062,-11.309 -17.137,0 -26.094,10.078 -26.094,29.348 0,17.582 8.059,30.016 26.766,30.016 15.679,0 24.191,-9.637 24.191,-27.332 0,-1.004 0,-2.465 -0.109,-4.145 h -40.434"
         style="fill:#231f20;fill-opacity:1;fill-rule:nonzero;stroke:none"
         id="path30" /><path
         d="m 935.063,726.363 c 10.527,0 16.464,8.184 16.464,23.078 0,13.547 -5.261,20.606 -15.453,20.606 -10.976,0 -16.801,-7.727 -16.801,-22.512 0,-10.863 3.133,-21.172 15.79,-21.172 z m -25.868,41.223 c 0,3.019 -0.113,6.156 -0.336,9.184 h 10.637 l 0.227,-9.075 c 3.808,6.496 10.75,10.192 19.148,10.192 14.563,0.113 23.633,-11.086 23.633,-29.121 0,-18.477 -9.856,-30.125 -25.649,-30.125 -7.617,0 -13.886,3.015 -17.246,8.398 v -28.117 h -10.414 v 68.664"
         style="fill:#231f20;fill-opacity:1;fill-rule:nonzero;stroke:none"
         id="path32" /><path
         d="m 1009.27,747.875 c -1.91,0.223 -3.48,0.223 -5.27,0.223 -3.02,0 -5.598,-0.223 -8.398,-0.672 -7.395,-1.121 -11.872,-5.153 -11.872,-10.754 0,-5.934 4.704,-9.742 11.645,-9.742 5.715,0 11.205,2.91 13.215,8.398 1.01,2.574 1.12,4.817 1.35,9.52 l 0.11,2.914 z m 2.01,-27.449 c -0.78,1.914 -1.01,5.039 -1.01,7.062 v 1.336 c -3.8,-6.933 -9.41,-10.183 -17.465,-10.183 -11.875,0 -19.715,6.609 -19.715,16.578 0,5.375 2.125,10.187 6.16,13.773 4.93,4.367 12.098,6.387 23.18,6.387 2.24,0 3.47,0.219 6.73,-0.227 l 0.89,-0.109 v 2.461 c 0,5.934 -0.45,7.953 -2.02,9.969 -1.56,2.242 -5.49,3.695 -9.737,3.695 -6.613,0 -10.867,-2.578 -11.316,-9.52 h -10.528 c 0.34,3.918 0.672,5.262 2.02,7.84 2.797,5.602 10.078,8.848 19.933,8.848 6.828,0 16.238,-1.902 20.048,-8.289 1.68,-2.91 1.9,-5.375 1.9,-8.625 l -0.44,-26.875 c -0.11,-4.707 0.33,-9.414 0.89,-14.121 h -9.52"
         style="fill:#231f20;fill-opacity:1;fill-rule:nonzero;stroke:none"
         id="path34" /><path
         d="m 1035.43,728.277 c 7.28,0 9.63,8.282 9.63,33.934 v 14.559 h 39.98 v -56.227 h -10.64 v 48.273 h -18.7 v -11.644 c 0,-16.242 -2.57,-29.129 -6.72,-33.387 -2.13,-2.129 -5.6,-4.023 -11.43,-4.023 -1.23,0 -4.81,0.449 -5.93,0.781 v 8.398 c 0.56,-0.222 3.02,-0.664 3.81,-0.664"
         style="fill:#231f20;fill-opacity:1;fill-rule:nonzero;stroke:none"
         id="path36" /><path
         d="m 1127.54,728.387 c 6.84,0 11.09,4.031 11.09,10.414 0,6.719 -4.03,10.301 -11.76,10.301 h -13.33 v -20.715 z m -24.64,48.383 h 10.64 v -19.825 h 15.68 c 12.55,0 20.61,-6.941 20.61,-18.257 0,-11.2 -7.28,-18.145 -19.6,-18.145 h -27.33 v 56.227"
         style="fill:#231f20;fill-opacity:1;fill-rule:nonzero;stroke:none"
         id="path38" /><path
         d="m 1173.22,720.543 h -10.64 v 56.227 h 10.64 v -23.184 h 27.66 v 23.184 h 10.64 v -56.227 h -10.64 v 25.199 h -27.66 v -25.199"
         style="fill:#231f20;fill-opacity:1;fill-rule:nonzero;stroke:none"
         id="path40" /><path
         d="m 1253.99,726.48 c 11.87,0 17.03,11.09 17.03,22.622 0,13.445 -6.05,21.394 -16.36,21.394 -10.64,0 -17.58,-8.512 -17.58,-21.281 0,-14.223 6.38,-22.735 16.91,-22.735 z m 0.67,51.747 c 18.04,0 27.55,-11.875 27.55,-29.461 0,-18.477 -11.09,-30.125 -28.44,-30.125 -17.14,0 -27.67,11.199 -27.67,29.343 0,18.036 9.97,30.243 28.56,30.243"
         style="fill:#231f20;fill-opacity:1;fill-rule:nonzero;stroke:none"
         id="path42" /><path
         d="m 1333.47,755.152 c 0,9.856 -5.04,15.567 -13.89,15.567 -9.18,0 -15.12,-6.379 -15.34,-16.574 h 29.23 z m -29.68,-8.402 v -1.793 c 0,-11.426 6.16,-18.477 16.13,-18.477 7.5,0 12.2,4.141 13.22,11.649 h 10.52 c -0.45,-3.922 -0.9,-5.496 -2.13,-7.957 -3.69,-7.168 -11.75,-11.309 -22.06,-11.309 -17.14,0 -26.1,10.078 -26.1,29.348 0,17.582 8.07,30.016 26.77,30.016 15.68,0 24.19,-9.637 24.19,-27.332 0,-1.004 0,-2.465 -0.11,-4.145 h -40.43"
         style="fill:#231f20;fill-opacity:1;fill-rule:nonzero;stroke:none"
         id="path44" /><path
         d="m 1439.75,720.543 v 45.363 h -0.22 l -16.35,-45.363 h -8.85 l -16.35,45.363 h -0.23 v -45.363 h -10.19 v 56.227 h 16.02 l 15.12,-43.239 h 0.11 l 15.12,43.239 h 16.02 v -56.227 h -10.2"
         style="fill:#231f20;fill-opacity:1;fill-rule:nonzero;stroke:none"
         id="path46" /><path
         d="m 1467.7,720.543 v 56.227 h 10.3 v -42.114 h 0.34 l 26.54,42.114 h 11.76 v -56.227 h -10.3 v 42.223 H 1506 l -26.54,-42.223 h -11.76"
         style="fill:#231f20;fill-opacity:1;fill-rule:nonzero;stroke:none"
         id="path48" /><path
         d="m 1544.98,720.543 h -10.64 v 56.227 h 10.64 v -23.184 h 27.66 v 23.184 h 10.64 v -56.227 h -10.64 v 25.199 h -27.66 v -25.199"
         style="fill:#231f20;fill-opacity:1;fill-rule:nonzero;stroke:none"
         id="path50" /><path
         d="m 1600.98,720.543 v 56.227 h 10.3 v -42.114 h 0.34 l 26.54,42.114 h 11.76 v -56.227 h -10.3 v 42.223 h -0.34 l -26.54,-42.223 h -11.76"
         style="fill:#231f20;fill-opacity:1;fill-rule:nonzero;stroke:none"
         id="path52" /><path
         d="m 1700.66,758.738 c -0.56,6.719 -3.36,11.758 -11.2,11.758 -11.98,0 -14.56,-11.644 -14.56,-21.394 0,-14.789 4.7,-22.063 14,-22.063 7.28,0 11.98,4.707 12.21,12.211 h 10.64 c -0.68,-12.105 -9.86,-20.16 -22.74,-20.16 -16.13,0 -25.2,10.418 -25.2,28.785 0,9.738 2.24,17.02 7.06,22.395 4.7,5.265 10.98,7.957 18.48,7.957 12.43,0 21.06,-6.719 21.95,-19.489 h -10.64"
         style="fill:#231f20;fill-opacity:1;fill-rule:nonzero;stroke:none"
         id="path54" /><path
         d="m 1769.7,768.816 h -20.38 v -48.273 h -10.64 v 48.273 h -20.39 v 7.954 h 51.41 v -7.954"
         style="fill:#231f20;fill-opacity:1;fill-rule:nonzero;stroke:none"
         id="path56" /><path
         d="m 1816.3,755.152 c 0,9.856 -5.04,15.567 -13.89,15.567 -9.18,0 -15.11,-6.379 -15.34,-16.574 h 29.23 z m -29.68,-8.402 v -1.793 c 0,-11.426 6.16,-18.477 16.13,-18.477 7.5,0 12.21,4.141 13.22,11.649 h 10.52 c -0.44,-3.922 -0.89,-5.496 -2.12,-7.957 -3.7,-7.168 -11.76,-11.309 -22.07,-11.309 -17.13,0 -26.09,10.078 -26.09,29.348 0,17.582 8.06,30.016 26.76,30.016 15.68,0 24.19,-9.637 24.19,-27.332 0,-1.004 0,-2.465 -0.11,-4.145 h -40.43"
         style="fill:#231f20;fill-opacity:1;fill-rule:nonzero;stroke:none"
         id="path58" /><path
         d="m 1867.31,726.363 c 10.53,0 16.47,8.184 16.47,23.078 0,13.547 -5.26,20.606 -15.45,20.606 -10.98,0 -16.81,-7.727 -16.81,-22.512 0,-10.863 3.14,-21.172 15.79,-21.172 z m -25.86,41.223 c 0,3.019 -0.12,6.156 -0.34,9.184 h 10.64 l 0.22,-9.075 c 3.81,6.496 10.76,10.192 19.15,10.192 14.56,0.113 23.64,-11.086 23.64,-29.121 0,-18.477 -9.86,-30.125 -25.65,-30.125 -7.62,0 -13.89,3.015 -17.25,8.398 v -28.117 h -10.41 v 68.664"
         style="fill:#231f20;fill-opacity:1;fill-rule:nonzero;stroke:none"
         id="path60" /><path
         d="m 1941.8,758.738 c -0.56,6.719 -3.36,11.758 -11.19,11.758 -12,0 -14.56,-11.644 -14.56,-21.394 0,-14.789 4.69,-22.063 13.99,-22.063 7.28,0 11.98,4.707 12.21,12.211 h 10.64 c -0.67,-12.105 -9.85,-20.16 -22.73,-20.16 -16.14,0 -25.21,10.418 -25.21,28.785 0,9.738 2.25,17.02 7.06,22.395 4.71,5.265 10.98,7.957 18.48,7.957 12.43,0 21.05,-6.719 21.95,-19.489 h -10.64"
         style="fill:#231f20;fill-opacity:1;fill-rule:nonzero;stroke:none"
         id="path62" /><path
         d="m 2010.83,768.816 h -20.39 v -48.273 h -10.63 v 48.273 h -20.39 v 7.954 h 51.41 v -7.954"
         style="fill:#231f20;fill-opacity:1;fill-rule:nonzero;stroke:none"
         id="path64" /><path
         d="m 2046.94,728.277 c 6.62,0 10.53,3.36 10.53,8.844 0,5.715 -3.8,8.621 -11.19,8.621 h -14.68 v -17.465 z m -2.01,24.746 c 6.95,0 10.08,3.137 10.08,8.176 0,5.262 -3.24,7.84 -9.4,7.84 h -14.01 v -16.016 z m 23.74,-15.902 c 0,-9.859 -7.72,-16.578 -19.03,-16.578 h -28.45 v 56.227 h 25.53 c 11.54,0 19.04,-4.821 19.04,-14.336 0,-5.602 -4.14,-10.528 -9.63,-11.762 v -0.227 c 7.28,-1.453 12.54,-6.941 12.54,-13.324"
         style="fill:#231f20;fill-opacity:1;fill-rule:nonzero;stroke:none"
         id="path66" /><path
         d="m 2107.5,726.48 c 11.88,0 17.02,11.09 17.02,22.622 0,13.445 -6.04,21.394 -16.35,21.394 -10.64,0 -17.58,-8.512 -17.58,-21.281 0,-14.223 6.38,-22.735 16.91,-22.735 z m 0.67,51.747 c 18.03,0 27.55,-11.875 27.55,-29.461 0,-18.477 -11.08,-30.125 -28.44,-30.125 -17.14,0 -27.67,11.199 -27.67,29.343 0,18.036 9.97,30.243 28.56,30.243"
         style="fill:#231f20;fill-opacity:1;fill-rule:nonzero;stroke:none"
         id="path68" /><path
         d="m 2179.51,720.543 v 56.227 h 10.3 v -42.114 h 0.34 l 26.54,42.114 h 11.77 v -56.227 h -10.32 v 42.223 h -0.33 l -26.54,-42.223 h -11.76"
         style="fill:#231f20;fill-opacity:1;fill-rule:nonzero;stroke:none"
         id="path70" /><path
         d="m 2256.78,720.543 h -10.64 v 56.227 h 10.64 v -23.184 h 27.66 v 23.184 h 10.65 v -56.227 h -10.65 v 25.199 h -27.66 v -25.199"
         style="fill:#231f20;fill-opacity:1;fill-rule:nonzero;stroke:none"
         id="path72" /><path
         d="m 2337.55,726.48 c 11.87,0 17.02,11.09 17.02,22.622 0,13.445 -6.04,21.394 -16.35,21.394 -10.64,0 -17.58,-8.512 -17.58,-21.281 0,-14.223 6.38,-22.735 16.91,-22.735 z m 0.67,51.747 c 18.03,0 27.55,-11.875 27.55,-29.461 0,-18.477 -11.08,-30.125 -28.45,-30.125 -17.13,0 -27.66,11.199 -27.66,29.343 0,18.036 9.97,30.243 28.56,30.243"
         style="fill:#231f20;fill-opacity:1;fill-rule:nonzero;stroke:none"
         id="path74" /><path
         d="m 2413.14,758.738 c -0.55,6.719 -3.35,11.758 -11.19,11.758 -11.99,0 -14.56,-11.644 -14.56,-21.394 0,-14.789 4.7,-22.063 14,-22.063 7.28,0 11.98,4.707 12.2,12.211 h 10.65 c -0.68,-12.105 -9.85,-20.16 -22.74,-20.16 -16.13,0 -25.2,10.418 -25.2,28.785 0,9.738 2.25,17.02 7.06,22.395 4.71,5.265 10.98,7.957 18.48,7.957 12.43,0 21.05,-6.719 21.95,-19.489 h -10.65"
         style="fill:#231f20;fill-opacity:1;fill-rule:nonzero;stroke:none"
         id="path76" /><path
         d="m 2482.19,768.816 h -20.39 v -48.273 h -10.64 v 48.273 h -20.38 v 7.954 h 51.41 v -7.954"
         style="fill:#231f20;fill-opacity:1;fill-rule:nonzero;stroke:none"
         id="path78" /><path
         d="m 2518.98,726.363 c 10.53,0 16.47,8.184 16.47,23.078 0,13.547 -5.26,20.606 -15.46,20.606 -10.98,0 -16.8,-7.727 -16.8,-22.512 0,-10.863 3.14,-21.172 15.79,-21.172 z m -25.86,41.223 c 0,3.019 -0.12,6.156 -0.35,9.184 h 10.65 l 0.22,-9.075 c 3.81,6.496 10.75,10.192 19.15,10.192 14.56,0.113 23.64,-11.086 23.64,-29.121 0,-18.477 -9.86,-30.125 -25.65,-30.125 -7.62,0 -13.89,3.015 -17.25,8.398 v -28.117 h -10.41 v 68.664"
         style="fill:#231f20;fill-opacity:1;fill-rule:nonzero;stroke:none"
         id="path80" /><path
         d="m 2593.14,747.875 c -1.9,0.223 -3.46,0.223 -5.26,0.223 -3.02,0 -5.59,-0.223 -8.4,-0.672 -7.39,-1.121 -11.87,-5.153 -11.87,-10.754 0,-5.934 4.7,-9.742 11.65,-9.742 5.71,0 11.2,2.91 13.21,8.398 1.02,2.574 1.12,4.817 1.35,9.52 l 0.12,2.914 z m 2.03,-27.449 c -0.79,1.914 -1.02,5.039 -1.02,7.062 v 1.336 c -3.8,-6.933 -9.4,-10.183 -17.47,-10.183 -11.87,0 -19.71,6.609 -19.71,16.578 0,5.375 2.13,10.187 6.17,13.773 4.92,4.367 12.08,6.387 23.18,6.387 2.23,0 3.47,0.219 6.72,-0.227 l 0.9,-0.109 v 2.461 c 0,5.934 -0.45,7.953 -2.03,9.969 -1.56,2.242 -5.48,3.695 -9.74,3.695 -6.6,0 -10.86,-2.578 -11.31,-9.52 h -10.53 c 0.33,3.918 0.68,5.262 2.01,7.84 2.81,5.602 10.09,8.848 19.95,8.848 6.82,0 16.24,-1.902 20.04,-8.289 1.68,-2.91 1.91,-5.375 1.91,-8.625 l -0.45,-26.875 c -0.12,-4.707 0.33,-9.414 0.9,-14.121 h -9.52"
         style="fill:#231f20;fill-opacity:1;fill-rule:nonzero;stroke:none"
         id="path82" /><path
         d="m 2632.01,720.543 h -10.63 v 56.227 h 10.63 v -23.184 h 27.67 v 23.184 h 10.64 v -56.227 h -10.64 v 25.199 h -27.67 v -25.199"
         style="fill:#231f20;fill-opacity:1;fill-rule:nonzero;stroke:none"
         id="path84" /><path
         d="m 2698.64,720.543 h -10.63 v 56.227 h 10.63 v -23.184 h 27.67 v 23.184 h 10.64 v -56.227 h -10.64 v 25.199 h -27.67 v -25.199"
         style="fill:#231f20;fill-opacity:1;fill-rule:nonzero;stroke:none"
         id="path86" /><path
         d="m 2820.11,776.77 v -56.227 h -10.65 v 56.227 z m -42.57,-48.383 c 6.84,0 11.09,4.031 11.09,10.414 0,6.719 -4.03,10.301 -11.75,10.301 h -11.66 v -20.715 z m -22.96,48.383 h 10.64 v -19.825 h 14 c 12.55,0 20.61,-6.941 20.61,-18.257 0,-11.2 -7.28,-18.145 -19.6,-18.145 h -25.65 v 56.227"
         style="fill:#231f20;fill-opacity:1;fill-rule:nonzero;stroke:none"
         id="path88" /><path
         d="m 2889.44,720.543 h -13.88 l -16.02,22.512 -15.91,-22.512 h -12.31 l 22.28,29.461 -21.05,26.766 h 13.78 l 15.01,-21.172 15.67,21.172 h 12.43 l -21.95,-27.442 21.95,-28.785"
         style="fill:#231f20;fill-opacity:1;fill-rule:nonzero;stroke:none"
         id="path90" /><path
         d="m 2966.84,768.816 h -20.5 c -0.23,-14.898 -0.78,-20.273 -2.46,-27.886 -1.01,-4.485 -2.24,-8.629 -5.04,-12.211 h 28 z m 7.73,-64.062 v 15.789 h -43.01 v -15.789 h -10.09 v 23.965 h 5.72 c 3.03,4.148 4.03,5.937 5.38,9.519 2.58,7.282 3.47,15.235 3.47,29.903 v 8.629 h 41.44 v -48.051 h 7.17 v -23.965 h -10.08"
         style="fill:#231f20;fill-opacity:1;fill-rule:nonzero;stroke:none"
         id="path92" /><path
         d="m 3032.64,755.152 c 0,9.856 -5.04,15.567 -13.89,15.567 -9.18,0 -15.12,-6.379 -15.34,-16.574 h 29.23 z m -29.68,-8.402 v -1.793 c 0,-11.426 6.16,-18.477 16.13,-18.477 7.5,0 12.21,4.141 13.21,11.649 h 10.53 c -0.45,-3.922 -0.9,-5.496 -2.13,-7.957 -3.69,-7.168 -11.75,-11.309 -22.06,-11.309 -17.14,0 -26.1,10.078 -26.1,29.348 0,17.582 8.07,30.016 26.77,30.016 15.68,0 24.2,-9.637 24.2,-27.332 0,-1.004 0,-2.465 -0.12,-4.145 h -40.43"
         style="fill:#231f20;fill-opacity:1;fill-rule:nonzero;stroke:none"
         id="path94" /><path
         d="m 3055.39,728.277 c 7.28,0 9.63,8.282 9.63,33.934 V 776.77 H 3105 v -56.227 h -10.63 v 48.273 h -18.71 v -11.644 c 0,-16.242 -2.57,-29.129 -6.72,-33.387 -2.12,-2.129 -5.6,-4.023 -11.42,-4.023 -1.24,0 -4.82,0.449 -5.94,0.781 v 8.398 c 0.56,-0.222 3.02,-0.664 3.81,-0.664"
         style="fill:#231f20;fill-opacity:1;fill-rule:nonzero;stroke:none"
         id="path96" /></g></g></svg>
