<svg xmlns="http://www.w3.org/2000/svg" width="397" height="276.98" viewBox="0 0 397 276.98"><defs><style>.cls-1{isolation:isolate}.cls-10,.cls-12,.cls-14,.cls-16,.cls-2,.cls-20,.cls-21,.cls-25,.cls-5,.cls-6{fill:#2f444e}.cls-2{opacity:.1}.cls-15,.cls-3,.cls-4,.cls-7{fill:#fff}.cls-3{mix-blend-mode:screen}.cls-11,.cls-13,.cls-19,.cls-5,.cls-6{opacity:.4}.cls-11,.cls-20,.cls-6{mix-blend-mode:multiply}.cls-16,.cls-7,.cls-8{opacity:.5}.cls-9{fill:#ababab}.cls-10,.cls-18{opacity:.2}.cls-14,.cls-15{opacity:.3}.cls-17{fill:#fed141}.cls-21,.cls-22,.cls-23{stroke:#2f444e;stroke-miterlimit:10}.cls-21,.cls-23{stroke-width:2px}.cls-22,.cls-23{fill:none}.cls-22{stroke-width:6px}.cls-24{fill:#8bc540}.cls-25{opacity:.4}</style></defs><g class="cls-1"><g id="Слой_3" data-name="Слой 3"><path d="M237.8,4.5C136.52,4.5,23,67.47,23,157.11c0,81.32,46.79,101.5,116.38,101.5H347.22c33.82-24.25,42.54-67.45,42.54-116.72C389.76,66,339.08,4.5,237.8,4.5Z" class="cls-2"/></g><g id="_Layer_" data-name="&lt;Layer&gt;"><path d="M120.1,254.07V194.68h3a.27.27,0,0,0,.27-.27l-2.59-19.48H36.87l-2.58,19.48a.27.27,0,0,0,.27.27h3v59.39H32.17v2.58h93.31v-2.58Z" class="cls-3"/><path d="M378,165v-3H303.43v3h2.63v14.88h-48.2v3h2.2v73.82H308.9v3.55h1.84v-3.55h4.4v1h-2.48v2.55h56.18v-2.55h-2.48v-1h4.29v3.55h1.84v-3.55h2.84V236.39h.72v-2.8h-.72V165Zm-16.59,47.89v-8.93h6.16v8.93Zm6.16,6.52v8.93h-6.16v-8.93Zm0-30.89v8.93h-6.16V188.5ZM361.37,182v-8.93h6.16V182Zm-15,31v-8.92h6.16V213Zm6.16,6.52v8.93h-6.16v-8.93Zm-6.16-22v-8.93h6.16v8.93Zm0-15.45v-8.92h6.16v8.92Zm-17.47,30.77v-8.93h6.17v8.93Zm6.17,6.52v8.93h-6.17v-8.93Zm-6.17-22V188.5h6.17v8.93Zm0-15.33v-8.92h6.17v8.92Zm-14.59,30.77v-8.93h6.16v8.93Zm6.16,6.52v8.93h-6.16v-8.93Zm-6.16-21.84v-8.93h6.16v8.93Zm0-15.45v-8.92h6.16v8.92ZM363,252.55H348V236.39h15Zm-16.06,0H334.44V236.39H347Zm-13.57,0h-15V236.39h15Zm-61.77-10h-6.17v-8.93h6.17Zm0-15.45h-6.17v-8.93h6.17Zm0-15.44h-6.17v-8.93h6.17Zm0-15.45h-6.17v-8.93h6.17Zm14.59,46.34H280v-8.93h6.16Zm0-15.45H280v-8.93h6.16Zm0-15.44H280v-8.93h6.16Zm0-15.45H280v-8.93h6.16Zm14.6,46.34h-6.17v-8.93h6.17Zm0-15.45h-6.17v-8.93h6.17Zm0-15.44h-6.17v-8.93h6.17Zm0-15.45h-6.17v-8.93h6.17Z" class="cls-4"/><polygon points="81.19 194.68 73.83 194.68 35.55 194.68 35.55 254.07 73.83 254.07 81.19 254.07 118.1 254.07 118.1 194.68 81.19 194.68" class="cls-5"/><polygon points="118.1 194.68 92.77 194.68 63.62 194.68 35.55 194.68 35.55 196.38 63.62 196.38 63.62 254.07 92.77 254.07 92.77 196.38 118.1 196.38 118.1 194.68" class="cls-6"/><path d="M118.78,174.93H34.87l-2.58,19.48a.27.27,0,0,0,.27.27H121.1a.27.27,0,0,0,.27-.27Z" class="cls-5"/><polygon points="91.4 254.07 62.25 254.07 62.25 194.68 76.83 176.24 91.4 194.68 91.4 254.07" class="cls-4"/><path d="M49.31,201.49a7.23,7.23,0,0,0-7.22,7.22v12.12H56.53V208.71A7.23,7.23,0,0,0,49.31,201.49ZM55.67,208H49.76v-5.68A6.39,6.39,0,0,1,55.67,208Zm-6.73.82v4.93h-6v-4.93Zm.82,0h6v4.93h-6Zm-.82-6.51V208H43A6.43,6.43,0,0,1,48.94,202.32Zm-6,12.26h6V220h-6ZM49.76,220v-5.43h6V220Z" class="cls-7"/><path d="M49.31,227.91a7.23,7.23,0,0,0-7.22,7.22v12.13H56.53V235.13A7.23,7.23,0,0,0,49.31,227.91Zm6.36,6.52H49.76v-5.68A6.41,6.41,0,0,1,55.67,234.43Zm-6.73.82v4.93h-6v-4.93Zm.82,0h6v4.93h-6Zm-.82-6.5v5.68H43A6.42,6.42,0,0,1,48.94,228.75Zm-6,12.25h6v5.44h-6Zm6.85,5.44V241h6v5.44Z" class="cls-7"/><g class="cls-8"><path d="M111.56,220.83H97.12V208.71a7.22,7.22,0,0,1,14.44,0ZM97.94,220h12.8v-11.3a6.4,6.4,0,1,0-12.8,0Z" class="cls-4"/><rect width="13.69" height=".82" x="97.53" y="213.76" class="cls-4"/><rect width="18.51" height=".82" x="95.12" y="210.76" class="cls-4" transform="translate(-106.79 315.54) rotate(-90)"/><rect width="13.69" height=".82" x="97.53" y="208.01" class="cls-4"/></g><g class="cls-8"><path d="M111.56,247.23H97.12V235.11a7.22,7.22,0,1,1,14.44,0Zm-13.62-.82h12.8v-11.3a6.4,6.4,0,1,0-12.8,0Z" class="cls-4"/><rect width="13.69" height=".82" x="97.53" y="240.16" class="cls-4"/><rect width="18.51" height=".82" x="95.12" y="237.15" class="cls-4" transform="translate(-133.19 341.94) rotate(-90)"/><rect width="13.69" height=".82" x="97.53" y="234.41" class="cls-4"/></g><rect width="93.31" height="2.59" x="30.17" y="254.07" class="cls-9"/><path d="M82.56,241.85a.69.69,0,1,1-.68-.68A.68.68,0,0,1,82.56,241.85Z" class="cls-4"/><rect width="17.03" height="1.02" x="40.8" y="220.83" class="cls-6"/><rect width="17.03" height="1.02" x="40.8" y="247.26" class="cls-6"/><rect width="17.03" height="1.02" x="95.86" y="220.83" class="cls-6"/><rect width="17.03" height="1.02" x="95.86" y="247.26" class="cls-6"/><polygon points="91.4 254.07 62.25 254.07 62.25 194.68 76.83 176.24 91.4 194.68 91.4 254.07" class="cls-10"/><polygon points="76.82 174.93 60 196.67 60.94 197.4 76.82 176.97 92.67 197.4 93.66 196.7 76.82 174.93" class="cls-4"/><g class="cls-8"><path d="M84.05,220.83H69.61V208.71a7.22,7.22,0,0,1,14.44,0ZM70.43,220h12.8v-11.3a6.4,6.4,0,0,0-12.8,0Z" class="cls-4"/><rect width="13.69" height=".82" x="70.02" y="213.76" class="cls-4"/><rect width="18.51" height=".82" x="67.61" y="210.76" class="cls-4" transform="translate(-134.3 288.03) rotate(-90)"/><rect width="13.69" height=".82" x="70.02" y="208.01" class="cls-4"/></g><g class="cls-11"><path d="M83.64,253.66H70V235.13a6.81,6.81,0,0,1,6.81-6.81h0a6.81,6.81,0,0,1,6.81,6.81Z" class="cls-12"/><path d="M84.05,254.07H69.61V235.13a7.22,7.22,0,0,1,14.44,0Zm-13.62-.82h12.8V235.13a6.4,6.4,0,0,0-12.8,0Z" class="cls-12"/></g><rect width="17.03" height="1.02" x="68.35" y="220.83" class="cls-6"/><g><path d="M305.34,233.59v2.8h3.56V260.2h1.84V236.39h6.74V255.1h-2.34v2.55h-2.48v2.55h56.18v-2.55h-2.48V255.1H364V236.39h6.63V260.2h1.84V236.39h3.56v-2.8Zm41.61,2.8v16.16H334.44V236.39Zm-28.55,0h15v16.16h-15ZM363,252.55H348V236.39h15Z" class="cls-4"/><path d="M260.06,182.83v73.82h46V182.83Zm11.55,59.73h-6.17v-8.93h6.17Zm0-15.45h-6.17v-8.93h6.17Zm0-15.44h-6.17v-8.93h6.17Zm0-15.45h-6.17v-8.93h6.17Zm14.59,46.34H280v-8.93h6.16Zm0-15.45H280v-8.93h6.16Zm0-15.44H280v-8.93h6.16Zm0-15.45H280v-8.93h6.16Zm14.6,46.34h-6.17v-8.93h6.17Zm0-15.45h-6.17v-8.93h6.17Zm0-15.44h-6.17v-8.93h6.17Zm0-15.45h-6.17v-8.93h6.17Z" class="cls-5"/><rect width="48.2" height="2.98" x="257.86" y="179.86" class="cls-13"/><path d="M306.06,165v91.67h69.27V165Zm55.31,8.07h6.16V182h-6.16Zm0,15.45h6.16v8.93h-6.16Zm-15-15.32h6.16v8.92h-6.16Zm0,15.44h6.16v8.93h-6.16Zm0,15.45h6.16V213h-6.16Zm0,15.44h6.16v8.93h-6.16Zm-17.47-46.33h6.17v8.92h-6.17Zm0,15.32h6.17v8.93h-6.17Zm0,15.44h6.17v8.93h-6.17Zm0,15.45h6.17v8.93h-6.17Zm-14.59-46.21h6.16v8.92h-6.16Zm0,15.44h6.16v8.93h-6.16Zm0,15.32h6.16v8.93h-6.16Zm0,15.45h6.16v8.93h-6.16ZM364,252.55H317.48V235.68H364Zm3.51-24.23h-6.16v-8.93h6.16Zm0-15.45h-6.16v-8.93h6.16Z" class="cls-14"/><rect width="1.84" height="23.8" x="308.9" y="236.39" class="cls-15"/><rect width=".92" height="16.15" x="317.48" y="236.39" class="cls-15"/><rect width="1.01" height="16.15" x="363.01" y="236.39" class="cls-15"/><rect width="1.84" height="23.8" x="370.65" y="236.39" class="cls-15" transform="translate(743.14 496.59) rotate(180)"/><rect width="46.55" height="2.55" x="317.48" y="252.55" class="cls-14"/><rect width="51.22" height="2.55" x="315.14" y="255.1" class="cls-5"/><rect width="56.18" height="2.55" x="312.66" y="257.65" class="cls-16"/><rect width="74.52" height="2.98" x="303.43" y="162" class="cls-13"/><rect width="70.71" height="2.8" x="305.34" y="233.59" class="cls-13"/></g><g><path d="M387.16,116.73H341.73a6.87,6.87,0,0,0-6.85,6.85v7.12a6.87,6.87,0,0,0,6.85,6.85h18.71l3.7,21.76,3.71-21.76h19.31A6.87,6.87,0,0,0,394,130.7v-7.12A6.87,6.87,0,0,0,387.16,116.73Z" class="cls-4"/><g id="Icon-Heart"><path id="Fill-18" d="M346.63,130.41l-.13-.11c-2.85-2.32-3.61-3.13-3.61-4.46a2,2,0,0,1,2-2,2.27,2.27,0,0,1,1.77.91,2.25,2.25,0,0,1,1.76-.91,2,2,0,0,1,2,2c0,1.33-.76,2.14-3.61,4.46l-.12.11Z" class="cls-17"/></g><g id="Icon-Heart-2" data-name="Icon-Heart"><path id="Fill-18-2" d="M355.38,130.41l-.12-.11c-2.85-2.32-3.62-3.13-3.62-4.46a2,2,0,0,1,2-2,2.25,2.25,0,0,1,1.76.91,2.27,2.27,0,0,1,1.77-.91,2,2,0,0,1,2,2c0,1.33-.77,2.14-3.61,4.46l-.13.11Z" class="cls-17" data-name="Fill-18"/></g><g id="Icon-Heart-3" data-name="Icon-Heart"><path id="Fill-18-3" d="M364.14,130.41l-.12-.11c-2.85-2.32-3.62-3.13-3.62-4.46a2,2,0,0,1,2-2,2.18,2.18,0,0,0,3.54,0,2,2,0,0,1,2,2c0,1.33-.77,2.14-3.61,4.46l-.13.11Z" class="cls-17" data-name="Fill-18"/></g><g id="Icon-Heart-4" data-name="Icon-Heart"><path id="Fill-18-4" d="M372.9,130.41l-.13-.11c-2.84-2.32-3.61-3.13-3.61-4.46a2,2,0,0,1,2-2,2.18,2.18,0,0,0,3.54,0,2,2,0,0,1,2,2c0,1.33-.77,2.14-3.62,4.46l-.12.11Z" class="cls-17" data-name="Fill-18"/></g><g class="cls-18"><g id="Icon-Heart-5" data-name="Icon-Heart"><g id="Fill-18-5" data-name="Fill-18"><path d="M381.66,130.41l-.13-.11c-2.85-2.32-3.61-3.13-3.61-4.46a2,2,0,0,1,2-2,2.17,2.17,0,0,0,3.53,0,2,2,0,0,1,2,2c0,1.33-.76,2.14-3.61,4.46l-.12.11Z" class="cls-12"/><path d="M383.42,123.87a2.17,2.17,0,0,1-3.53,0,2,2,0,0,0-2,2c0,1.33.76,2.14,3.61,4.46l.13.11.12-.11c2.85-2.32,3.61-3.13,3.61-4.46a2,2,0,0,0-2-2Z" class="cls-12"/></g></g></g><g class="cls-19"><path d="M387.16,117.73a5.86,5.86,0,0,1,5.85,5.85v7.12a5.86,5.86,0,0,1-5.85,5.85H367l-.14.83-2.72,16-2.72-16-.14-.83H341.73a5.86,5.86,0,0,1-5.85-5.85v-7.12a5.86,5.86,0,0,1,5.85-5.85h45.43m0-1H341.73a6.87,6.87,0,0,0-6.85,6.85v7.12a6.87,6.87,0,0,0,6.85,6.85h18.71l3.7,21.76,3.71-21.76h19.31A6.87,6.87,0,0,0,394,130.7v-7.12a6.87,6.87,0,0,0-6.85-6.85Z" class="cls-12"/></g></g><g><path d="M85,128.27H39.54a6.87,6.87,0,0,0-6.85,6.85v7.11a6.87,6.87,0,0,0,6.85,6.85h18.7L62,170.84l3.7-21.76H85a6.87,6.87,0,0,0,6.85-6.85v-7.11A6.87,6.87,0,0,0,85,128.27Z" class="cls-4"/><g id="Icon-Heart-6" data-name="Icon-Heart"><path id="Fill-18-6" d="M44.43,141.94l-.12-.11c-2.85-2.31-3.62-3.12-3.62-4.45a2,2,0,0,1,2-2,2.25,2.25,0,0,1,1.77.9,2.25,2.25,0,0,1,1.77-.9,2,2,0,0,1,2,2c0,1.33-.77,2.14-3.61,4.45l-.13.11Z" class="cls-17" data-name="Fill-18"/></g><g id="Icon-Heart-7" data-name="Icon-Heart"><path id="Fill-18-7" d="M53.19,141.94l-.13-.11c-2.84-2.31-3.61-3.12-3.61-4.45a2,2,0,0,1,2-2,2.27,2.27,0,0,1,1.77.9,2.25,2.25,0,0,1,1.77-.9,2,2,0,0,1,2,2c0,1.33-.77,2.14-3.62,4.45l-.12.11Z" class="cls-17" data-name="Fill-18"/></g><g id="Icon-Heart-8" data-name="Icon-Heart"><path id="Fill-18-8" d="M62,141.94l-.13-.11c-2.85-2.31-3.61-3.12-3.61-4.45a2,2,0,0,1,2-2,2.27,2.27,0,0,1,1.77.9,2.25,2.25,0,0,1,1.76-.9,2,2,0,0,1,2,2c0,1.33-.76,2.14-3.61,4.45l-.12.11Z" class="cls-17" data-name="Fill-18"/></g><g id="Icon-Heart-9" data-name="Icon-Heart"><path id="Fill-18-9" d="M70.7,141.94l-.12-.11c-2.85-2.31-3.61-3.12-3.61-4.45a2,2,0,0,1,2-2,2.25,2.25,0,0,1,1.76.9,2.27,2.27,0,0,1,1.77-.9,2,2,0,0,1,2,2c0,1.33-.76,2.14-3.61,4.45l-.13.11Z" class="cls-17" data-name="Fill-18"/></g><g id="Icon-Heart-10" data-name="Icon-Heart"><path id="Fill-18-10" d="M79.46,141.94l-.12-.11c-2.85-2.31-3.62-3.12-3.62-4.45a2,2,0,0,1,2-2,2.25,2.25,0,0,1,1.77.9,2.27,2.27,0,0,1,1.77-.9,2,2,0,0,1,2,2c0,1.33-.77,2.14-3.61,4.45l-.13.11Z" class="cls-17" data-name="Fill-18"/></g><g class="cls-19"><path d="M85,129.27a5.86,5.86,0,0,1,5.85,5.85v7.11A5.86,5.86,0,0,1,85,148.08H64.81l-.14.83-2.72,16-2.72-16-.14-.83H39.54a5.85,5.85,0,0,1-5.85-5.85v-7.11a5.85,5.85,0,0,1,5.85-5.85H85m0-1H39.54a6.87,6.87,0,0,0-6.85,6.85v7.11a6.87,6.87,0,0,0,6.85,6.85h18.7L62,170.84l3.7-21.76H85a6.87,6.87,0,0,0,6.85-6.85v-7.11A6.87,6.87,0,0,0,85,128.27Z" class="cls-12"/></g></g><g><rect width="59.13" height="20.82" x="292.3" y="19.85" class="cls-4" rx="6.85"/><g id="Icon-Heart-11" data-name="Icon-Heart"><path id="Fill-18-11" d="M304,33.53l-.12-.11c-2.85-2.32-3.61-3.13-3.61-4.46a2,2,0,0,1,2-2,2.25,2.25,0,0,1,1.76.91,2.27,2.27,0,0,1,1.77-.91,2,2,0,0,1,2,2c0,1.33-.76,2.14-3.61,4.46l-.13.11Z" class="cls-17" data-name="Fill-18"/></g><g id="Icon-Heart-12" data-name="Icon-Heart"><path id="Fill-18-12" d="M312.8,33.53l-.12-.11c-2.85-2.32-3.62-3.13-3.62-4.46a2,2,0,0,1,2-2,2.26,2.26,0,0,1,1.77.91,2.27,2.27,0,0,1,1.77-.91,2,2,0,0,1,2,2c0,1.33-.77,2.14-3.61,4.46l-.13.11Z" class="cls-17" data-name="Fill-18"/></g><g id="Icon-Heart-13" data-name="Icon-Heart"><path id="Fill-18-13" d="M321.56,33.53l-.13-.11c-2.84-2.32-3.61-3.13-3.61-4.46a2,2,0,0,1,2-2,2.27,2.27,0,0,1,1.77.91,2.26,2.26,0,0,1,1.77-.91,2,2,0,0,1,2,2c0,1.33-.77,2.14-3.62,4.46l-.12.11Z" class="cls-17" data-name="Fill-18"/></g><g id="Icon-Heart-14" data-name="Icon-Heart"><path id="Fill-18-14" d="M330.32,33.53l-.13-.11c-2.85-2.32-3.61-3.13-3.61-4.46a2,2,0,0,1,2-2,2.27,2.27,0,0,1,1.77.91,2.25,2.25,0,0,1,1.76-.91,2,2,0,0,1,2,2c0,1.33-.76,2.14-3.61,4.46l-.12.11Z" class="cls-17" data-name="Fill-18"/></g><g id="Icon-Heart-15" data-name="Icon-Heart"><path id="Fill-18-15" d="M339.07,33.53l-.12-.11c-2.85-2.32-3.61-3.13-3.61-4.46a2,2,0,0,1,2-2,2.25,2.25,0,0,1,1.76.91,2.27,2.27,0,0,1,1.77-.91,2,2,0,0,1,2,2c0,1.33-.76,2.14-3.61,4.46l-.13.11Z" class="cls-17" data-name="Fill-18"/></g><g class="cls-19"><path d="M344.58,20.85a5.85,5.85,0,0,1,5.85,5.85v7.12a5.86,5.86,0,0,1-5.85,5.85H299.15a5.86,5.86,0,0,1-5.85-5.85V26.7a5.86,5.86,0,0,1,5.85-5.85h45.43m0-1H299.15a6.87,6.87,0,0,0-6.85,6.85v7.12a6.87,6.87,0,0,0,6.85,6.85h45.43a6.87,6.87,0,0,0,6.85-6.85V26.7a6.87,6.87,0,0,0-6.85-6.85Z" class="cls-12"/></g></g><polygon points="276.86 261.34 108.93 260.42 108.93 40.99 276.86 41.91 276.86 261.34" class="cls-4"/><g class="cls-18"><rect width="162.63" height="214.43" x="112.12" y="43.95" class="cls-4"/><path d="M114.62,46.38l157.63.14V256l-157.63-.14V46.38m-5-5V260.8l167.63.16V41.53l-167.63-.16Z" class="cls-12"/></g><g class="cls-18"><path d="M271.93,46V255.42h-158V46h158m5-5h-168V260.42h168V41Z" class="cls-12"/></g><rect width="10.84" height="15.61" x="204.57" y="178.45" class="cls-5"/><rect width="10.84" height="28.34" x="172.09" y="207.35" class="cls-5"/><rect width="10.84" height="28.34" x="208.07" y="83.83" class="cls-5"/><rect width="10.84" height="28.34" x="139.16" y="71.69" class="cls-5" transform="translate(58.71 230.44) rotate(-90)"/><rect width="7.52" height="20.55" x="129.32" y="93.09" class="cls-5" transform="translate(266.15 206.73) rotate(180)"/><rect width="8.43" height="18.44" x="130.04" y="215.15" class="cls-5"/><g><g class="cls-18"><path d="M157.92,181.7a3.17,3.17,0,0,0-1.07-2.15,3.26,3.26,0,0,0-.68-.46,3.23,3.23,0,0,0,.05-.82,3.38,3.38,0,0,0-1.13-2.26,3.33,3.33,0,0,0-2.09-.81,3.16,3.16,0,0,0-.89-1.32,3.36,3.36,0,0,0-2.35-.79,3.19,3.19,0,0,0-2.94,3.3,3.33,3.33,0,0,0-1.38,2.15,3.19,3.19,0,0,0-1.22.87,3.25,3.25,0,0,0,.3,4.59l.7.47a3.3,3.3,0,0,0,1.7.33l.82-.18a3,3,0,0,0,.41-.18l.13.12.84.57a4,4,0,0,0,2,.39l1-.21a4,4,0,0,0,1.06-.57,3.77,3.77,0,0,0,1.78.38A3.19,3.19,0,0,0,157.92,181.7Z" class="cls-12"/><path d="M146.47,181.71a7.89,7.89,0,0,1,5.91-7.56,1.72,1.72,0,0,0-.27-.27,3.36,3.36,0,0,0-2.35-.79,3.19,3.19,0,0,0-2.94,3.3,3.33,3.33,0,0,0-1.38,2.15,3.19,3.19,0,0,0-1.22.87,3.25,3.25,0,0,0,.3,4.59l.7.47a3.3,3.3,0,0,0,1.7.33l.19-.05A7.56,7.56,0,0,1,146.47,181.71Z" class="cls-20"/></g><polygon points="152.62 183.75 152.52 183.65 151.54 184.33 151.32 182.17 150.99 182.17 150.62 185.85 150.05 185.45 149.95 185.55 150.56 186.45 150.17 190.35 152.14 190.35 151.62 185.21 152.62 183.75" class="cls-5"/></g><g><g class="cls-18"><path d="M259,215.93c-.33-.58-.06-1.08.6-1.08h.13c.67,0,.94-.44.61-1l-1.62-2.77c-.33-.57-.18-1,.35-1s.69-.46.35-1L258,206.5l-1.22-2.09-1.44-2.49a.65.65,0,0,0-1.22,0l-1.44,2.49-1.21,2.09L250,209c-.33.57-.18,1,.35,1s.69.47.35,1.05l-1.61,2.75c-.34.57-.06,1,.6,1h.13c.66,0,.94.5.6,1.08l-2.32,4c-.33.58-.06,1.08.6,1.08h12c.67,0,.94-.5.6-1.08Z" class="cls-12"/><path d="M254.78,201.49a.72.72,0,0,0-.66.43l-1.44,2.49-1.21,2.09L250,209c-.33.57-.18,1,.35,1s.69.47.35,1.05l-1.61,2.76c-.34.58-.06,1,.6,1h.13a.65.65,0,0,1,.6,1.06l-2.32,4c-.33.58-.06,1.08.6,1.08h6.06Z" class="cls-20"/></g><polygon points="256.54 214.83 256.4 214.7 255.27 215.48 254.78 208.93 254.34 208.93 254.04 212.83 253.06 212.16 252.93 212.28 253.97 213.81 253.69 217.56 253.06 217.13 252.93 217.26 253.64 218.3 253.23 223.75 255.88 223.75 255.35 216.56 256.54 214.83" class="cls-5"/></g><g><g class="cls-18"><path d="M244.34,205.18a.4.4,0,0,1,.37-.66h.07c.41,0,.58-.27.37-.62l-1-1.69c-.2-.35-.1-.64.22-.64s.42-.28.21-.63l-.88-1.53-.74-1.28-.89-1.52a.39.39,0,0,0-.74,0l-.89,1.52c-.2.36-.53.93-.74,1.28l-.88,1.53c-.21.35-.11.64.21.64s.42.29.22.64l-1,1.68c-.2.35,0,.62.37.62h.08a.4.4,0,0,1,.37.66l-1.43,2.47a.4.4,0,0,0,.37.66h7.36c.41,0,.57-.31.37-.66Z" class="cls-12"/><path d="M241.74,196.35a.42.42,0,0,0-.4.26l-.89,1.52-.74,1.28-.88,1.53c-.21.35-.11.64.21.64s.42.29.22.64l-1,1.69c-.2.35,0,.63.37.63h.08a.4.4,0,0,1,.37.65l-1.43,2.47a.4.4,0,0,0,.37.65h3.71Z" class="cls-20"/></g><polygon points="242.81 204.51 242.74 204.43 242.04 204.9 241.74 200.9 241.47 200.9 241.29 203.28 240.69 202.87 240.61 202.95 241.25 203.88 241.07 206.18 240.69 205.92 240.61 206 241.04 206.63 240.79 209.97 242.42 209.97 242.09 205.57 242.81 204.51" class="cls-5"/></g><g><g class="cls-18"><path d="M177.53,106.71c-.33-.57-.06-1.08.6-1.08h.13c.67,0,.94-.43.6-1l-1.61-2.77c-.33-.57-.18-1,.35-1s.69-.47.35-1l-1.44-2.49c-.34-.58-.88-1.52-1.22-2.09l-1.44-2.49a.65.65,0,0,0-1.22,0l-1.44,2.49c-.34.57-.88,1.51-1.22,2.09l-1.44,2.49c-.34.58-.18,1,.35,1s.69.47.35,1l-1.61,2.75c-.34.58-.07,1,.6,1h.13c.66,0,.93.51.6,1.08l-2.32,4a.66.66,0,0,0,.6,1.08h12c.67,0,.94-.51.6-1.08Z" class="cls-12"/><path d="M173.29,92.28a.72.72,0,0,0-.66.43l-1.44,2.49c-.34.57-.88,1.51-1.22,2.09l-1.44,2.49c-.34.58-.18,1,.35,1s.69.47.35,1l-1.61,2.77c-.34.57-.07,1,.6,1h.13c.66,0,.93.49.6,1.07l-2.32,4a.65.65,0,0,0,.6,1.07h6.06Z" class="cls-20"/></g><polygon points="175.04 105.61 174.91 105.48 173.78 106.26 173.29 99.72 172.84 99.72 172.55 103.61 171.57 102.94 171.44 103.07 172.48 104.59 172.2 108.35 171.57 107.92 171.44 108.05 172.15 109.08 171.74 114.53 174.39 114.53 173.86 107.35 175.04 105.61" class="cls-5"/></g><g><g class="cls-18"><path d="M141.55,192c-.21-.36,0-.67.37-.67H142c.41,0,.58-.27.37-.62l-1-1.71c-.2-.35-.11-.64.22-.64s.42-.29.22-.64l-.89-1.54c-.21-.35-.55-.93-.75-1.29l-.89-1.53c-.21-.36-.55-.36-.75,0l-.9,1.53c-.2.36-.54.94-.74,1.29l-.9,1.54c-.2.36-.1.65.22.65s.42.29.22.64l-1,1.7c-.2.35,0,.62.37.62h.08c.41,0,.58.31.37.67l-1.43,2.49c-.2.35,0,.66.37.66h7.42a.4.4,0,0,0,.37-.66Z" class="cls-12"/><path d="M138.93,183.07a.44.44,0,0,0-.4.27l-.9,1.53-.74,1.29-.9,1.54c-.2.36-.1.65.22.65s.42.29.22.64l-1,1.71c-.2.35,0,.63.37.63h.08c.41,0,.58.3.37.66l-1.43,2.48c-.2.36,0,.66.37.66h3.74Z" class="cls-20"/></g><polygon points="140.01 191.3 139.93 191.22 139.23 191.7 138.93 187.66 138.66 187.66 138.48 190.07 137.87 189.65 137.79 189.73 138.43 190.67 138.26 192.99 137.87 192.72 137.79 192.8 138.23 193.44 137.97 196.8 139.61 196.8 139.28 192.37 140.01 191.3" class="cls-5"/></g><g><path d="M157.62,137.16v.62h.78V143h.41v-5.26h1.49v4.13h-.52v.56h-.55V143h12.42v-.57h-.55v-.56h-.52v-4.13h1.47V143h.4v-5.26h.79v-.62Zm9.19.62v3.56h-2.76v-3.56Zm-6.31,0h3.31v3.56H160.5Zm9.86,3.56h-3.31v-3.56h3.31Z" class="cls-4"/><path d="M173.08,125.94v16.31h10.17V125.94Zm2.56,13.2h-1.36v-2h1.36Zm0-3.42h-1.36v-2h1.36Zm0-3.41h-1.36v-2h1.36Zm0-3.41h-1.36v-2h1.36Zm3.23,10.24H177.5v-2h1.37Zm0-3.42H177.5v-2h1.37Zm0-3.41H177.5v-2h1.37Zm0-3.41H177.5v-2h1.37Zm3.22,10.24h-1.36v-2h1.36Zm0-3.42h-1.36v-2h1.36Zm0-3.41h-1.36v-2h1.36Zm0-3.41h-1.36v-2h1.36Z" class="cls-5"/><rect width="10.65" height=".66" x="173.08" y="125.28" class="cls-13"/><path d="M147.61,125.94v16.31h10.17V125.94Zm2.55,13.2H148.8v-2h1.36Zm0-3.42H148.8v-2h1.36Zm0-3.41H148.8v-2h1.36Zm0-3.41H148.8v-2h1.36Zm3.23,10.24H152v-2h1.36Zm0-3.42H152v-2h1.36Zm0-3.41H152v-2h1.36Zm0-3.41H152v-2h1.36Zm3.22,10.24h-1.36v-2h1.36Zm0-3.42h-1.36v-2h1.36Zm0-3.41h-1.36v-2h1.36Zm0-3.41h-1.36v-2h1.36Z" class="cls-5"/><rect width="10.65" height=".66" x="147.12" y="125.28" class="cls-13"/><path d="M157.78,122v20.25h15.3V122ZM170,123.78h1.36v2H170Zm0,3.41h1.36v2H170Zm-3.32-3.38H168v2h-1.36Zm0,3.41H168v2h-1.36Zm0,3.41H168v2h-1.36Zm0,3.42H168v2h-1.36Zm-3.86-10.24h1.36v2h-1.36Zm0,3.38h1.36v2h-1.36Zm0,3.42h1.36v2h-1.36Zm0,3.41h1.36v2h-1.36Zm-3.23-10.21H161v2h-1.37Zm0,3.41H161v2h-1.37Zm0,3.39H161v2h-1.37Zm0,3.41H161v2h-1.37Zm11,7.32H160.3v-3.72h10.28Zm.78-5.35H170v-2h1.36Zm0-3.41H170v-2h1.36Z" class="cls-14"/><rect width=".41" height="5.26" x="158.4" y="137.78" class="cls-15"/><rect width=".2" height="3.57" x="160.3" y="137.78" class="cls-15"/><rect width=".22" height="3.57" x="170.36" y="137.78" class="cls-15"/><rect width=".41" height="5.26" x="172.05" y="137.78" class="cls-15" transform="translate(344.5 280.81) rotate(180)"/><rect width="10.29" height=".56" x="160.3" y="141.34" class="cls-14"/><rect width="11.32" height=".56" x="159.78" y="141.91" class="cls-5"/><rect width="12.41" height=".56" x="159.23" y="142.47" class="cls-16"/><rect width="16.47" height=".66" x="157.2" y="121.34" class="cls-13"/><rect width="15.62" height=".62" x="157.62" y="137.16" class="cls-13"/></g><g><path d="M220.65,137.16v.62h.78V143h.41v-5.26h1.49v4.13h-.52v.56h-.55V143h12.42v-.57h-.55v-.56h-.52v-4.13h1.47V143h.4v-5.26h.79v-.62Zm9.19.62v3.56h-2.76v-3.56Zm-6.31,0h3.31v3.56h-3.31Zm9.86,3.56h-3.31v-3.56h3.31Z" class="cls-4"/><path d="M236.11,125.94v16.31h10.17V125.94Zm2.56,13.2h-1.36v-2h1.36Zm0-3.42h-1.36v-2h1.36Zm0-3.41h-1.36v-2h1.36Zm0-3.41h-1.36v-2h1.36Zm3.23,10.24h-1.36v-2h1.36Zm0-3.42h-1.36v-2h1.36Zm0-3.41h-1.36v-2h1.36Zm0-3.41h-1.36v-2h1.36Zm3.22,10.24h-1.36v-2h1.36Zm0-3.42h-1.36v-2h1.36Zm0-3.41h-1.36v-2h1.36Zm0-3.41h-1.36v-2h1.36Z" class="cls-5"/><rect width="10.65" height=".66" x="236.11" y="125.28" class="cls-13"/><path d="M210.64,125.94v16.31h10.17V125.94Zm2.55,13.2h-1.36v-2h1.36Zm0-3.42h-1.36v-2h1.36Zm0-3.41h-1.36v-2h1.36Zm0-3.41h-1.36v-2h1.36Zm3.23,10.24h-1.36v-2h1.36Zm0-3.42h-1.36v-2h1.36Zm0-3.41h-1.36v-2h1.36Zm0-3.41h-1.36v-2h1.36Zm3.22,10.24h-1.36v-2h1.36Zm0-3.42h-1.36v-2h1.36Zm0-3.41h-1.36v-2h1.36Zm0-3.41h-1.36v-2h1.36Z" class="cls-5"/><rect width="10.65" height=".66" x="210.16" y="125.28" class="cls-13"/><path d="M220.81,122v20.25h15.3V122ZM233,123.78h1.36v2H233Zm0,3.41h1.36v2H233Zm-3.32-3.38h1.36v2h-1.36Zm0,3.41h1.36v2h-1.36Zm0,3.41h1.36v2h-1.36Zm0,3.42h1.36v2h-1.36Zm-3.86-10.24h1.36v2h-1.36Zm0,3.38h1.36v2h-1.36Zm0,3.42h1.36v2h-1.36Zm0,3.41h1.36v2h-1.36Zm-3.23-10.21H224v2h-1.37Zm0,3.41H224v2h-1.37Zm0,3.39H224v2h-1.37Zm0,3.41H224v2h-1.37Zm11,7.32H223.33v-3.72h10.28Zm.78-5.35H233v-2h1.36Zm0-3.41H233v-2h1.36Z" class="cls-14"/><rect width=".41" height="5.26" x="221.43" y="137.78" class="cls-15"/><rect width=".2" height="3.57" x="223.33" y="137.78" class="cls-15"/><rect width=".22" height="3.57" x="233.39" y="137.78" class="cls-15"/><rect width=".41" height="5.26" x="235.08" y="137.78" class="cls-15" transform="translate(470.56 280.81) rotate(180)"/><rect width="10.29" height=".56" x="223.33" y="141.34" class="cls-14"/><rect width="11.32" height=".56" x="222.81" y="141.91" class="cls-5"/><rect width="12.41" height=".56" x="222.26" y="142.47" class="cls-16"/><rect width="16.47" height=".66" x="220.23" y="121.34" class="cls-13"/><rect width="15.62" height=".62" x="220.65" y="137.16" class="cls-13"/></g><g><path d="M243.83,181.21v.62h.79v5.26H245v-5.26h1.48V186H246v.56h-.55v.57h12.41v-.57h-.54V186h-.52v-4.13h1.46v5.26h.41v-5.26h.79v-.62Zm9.2.62v3.57h-2.77v-3.57Zm-6.31,0H250v3.57h-3.31Zm9.86,3.57h-3.32v-3.57h3.32Z" class="cls-4"/><path d="M259.3,170V186.3h10.16V170Zm2.56,13.2H260.5v-2h1.36Zm0-3.41H260.5v-2h1.36Zm0-3.42H260.5v-2h1.36Zm0-3.41H260.5v-2h1.36Zm3.22,10.24h-1.36v-2h1.36Zm0-3.41h-1.36v-2h1.36Zm0-3.42h-1.36v-2h1.36Zm0-3.41h-1.36v-2h1.36Zm3.23,10.24H267v-2h1.36Zm0-3.41H267v-2h1.36Zm0-3.42H267v-2h1.36Zm0-3.41H267v-2h1.36Z" class="cls-5"/><rect width="10.65" height=".66" x="259.3" y="169.33" class="cls-13"/><path d="M233.83,170V186.3H244V170Zm2.55,13.2H235v-2h1.36Zm0-3.41H235v-2h1.36Zm0-3.42H235v-2h1.36Zm0-3.41H235v-2h1.36Zm3.22,10.24h-1.36v-2h1.36Zm0-3.41h-1.36v-2h1.36Zm0-3.42h-1.36v-2h1.36Zm0-3.41h-1.36v-2h1.36Zm3.23,10.24h-1.36v-2h1.36Zm0-3.41h-1.36v-2h1.36Zm0-3.42h-1.36v-2h1.36Zm0-3.41h-1.36v-2h1.36Z" class="cls-5"/><rect width="10.65" height=".66" x="233.34" y="169.33" class="cls-13"/><path d="M244,166.05V186.3H259.3V166.05Zm12.22,1.78h1.36v2h-1.36Zm0,3.41h1.36v2h-1.36Zm-3.32-3.38h1.37v2h-1.37Zm0,3.41h1.37v2h-1.37Zm0,3.41h1.37v2h-1.37Zm0,3.42h1.37v2h-1.37ZM249,167.86h1.37v2H249Zm0,3.38h1.37v2H249Zm0,3.42h1.37v2H249Zm0,3.41h1.37v2H249Zm-3.22-10.21h1.36v2h-1.36Zm0,3.41h1.36v2h-1.36Zm0,3.39h1.36v2h-1.36Zm0,3.41h1.36v2h-1.36Zm11,7.33H246.51v-3.73H256.8Zm.77-5.36h-1.36v-2h1.36Zm0-3.41h-1.36v-2h1.36Z" class="cls-14"/><rect width=".41" height="5.26" x="244.62" y="181.83" class="cls-15"/><rect width=".2" height="3.57" x="246.51" y="181.83" class="cls-15"/><rect width=".22" height="3.57" x="256.58" y="181.83" class="cls-15"/><rect width=".41" height="5.26" x="258.26" y="181.83" class="cls-15" transform="translate(516.93 368.91) rotate(180)"/><rect width="10.29" height=".56" x="246.51" y="185.4" class="cls-14"/><rect width="11.32" height=".56" x="246" y="185.96" class="cls-5"/><rect width="12.41" height=".56" x="245.45" y="186.52" class="cls-16"/><rect width="16.47" height=".66" x="243.41" y="165.39" class="cls-13"/><rect width="15.62" height=".62" x="243.83" y="181.21" class="cls-13"/></g><g class="cls-18"><g><line x1="113.92" x2="273.64" y1="242.05" y2="246.15" class="cls-21"/><polygon points="122.85 242.07 116.85 241.9 119.39 150.03 271.86 153.05 271.86 158.97 125.22 156.14 122.85 242.07" class="cls-12"/><polyline points="113.92 69.34 198 69.34 193.52 244.09" class="cls-22"/><path d="M274.31,113.11,249,89.51a74.4,74.4,0,0,0-35.74-18.44l-3.12-.65a53.3,53.3,0,0,0-10.62-1.08H134.36" class="cls-22"/><path d="M195.16,180.15a12.06,12.06,0,0,0-8.64,0,60.08,60.08,0,0,1-12.12,3.49h-4.46a2.71,2.71,0,0,0-2.71,2.71v14.19h26.58" class="cls-23"/><path d="M170.72,200.54h-5.23a1.28,1.28,0,0,0-1.29,1.28h0a1.28,1.28,0,0,1-1.28,1.29h-6.71v40" class="cls-23"/><line x1="156.21" x2="121.59" y1="207.42" y2="207.97" class="cls-23"/><path d="M127.68,153.18V130.9a13.56,13.56,0,0,0-3-8.46h0a13.46,13.46,0,0,1-3-8.86L123,69.34" class="cls-23"/><path d="M195.16,170.72h18a4.29,4.29,0,0,0,4.29-4.29v-12" class="cls-23"/><polygon points="235.31 155.23 235.31 162.6 217.44 162.6 217.44 155.41 235.31 155.23" class="cls-12"/><path d="M198.66,169.08l3.44-3.8a1.33,1.33,0,0,1,1-.44h1.26a1.32,1.32,0,0,0,1.33-1.33h0a1.33,1.33,0,0,1,.85-1.24l6.76-2.6a1.28,1.28,0,0,1,.48-.09h3.93a1.34,1.34,0,0,0,1.33-1.33v-1.73a1.33,1.33,0,0,0-1.29-1.33l-20.59-.67a1.34,1.34,0,0,0-1.37,1.3l-.29,11.5a1.32,1.32,0,0,0,.4,1l.85.83A1.33,1.33,0,0,0,198.66,169.08Z" class="cls-12"/><path d="M217.44,153.08v-3.35a2.11,2.11,0,0,0-1.69-2.07l-1.45-.3a27.83,27.83,0,0,0-4.55-.53l-12.67-.39v7.07Z" class="cls-12"/><rect width="10.93" height="7.71" x="125.66" y="157.43" class="cls-12" rx="3.58"/></g></g><path d="M207.94,78.36l3.12.64a65.94,65.94,0,0,1,31.61,16.29l29.51,27.95V99.83L254.31,82.9a82.86,82.86,0,0,0-39.83-20.55l-3.12-.64c-1.7-.35-3.42-.61-5.15-.82l-6.3-.44L200,46.07h-2l-.05,14.39H114.59v17h2.19l-1,35.58a19,19,0,0,0,4.19,12.46,8.09,8.09,0,0,1,1.76,5v13.68l-7.08-.14,0,102.32,157.59,4.86v-11l-70.52-1.81,1.61-62.59h9.39a9.8,9.8,0,0,0,9.78-9.79l0-3.44,49.4.51V147.05L204,145.75,205.78,78Q206.86,78.13,207.94,78.36ZM150.22,237.1,128,236.53l.65-23.57,21.57-.34Zm34.45.89-23.45-.61V208.21h1.2a6.78,6.78,0,0,0,5.32-2.57H185.5Zm1.11-43.35H172.24v-5.89h1.66c2.11,0,7.89-1.58,12.11-3.1Zm.53-20.74a15.93,15.93,0,0,0-2.4.78,63.47,63.47,0,0,1-10.25,3.07h-4.21a8.21,8.21,0,0,0-8.21,8.2v9.84a6.81,6.81,0,0,0-1.56,1.42h-9.46v4.41L129,202l1-37.2h3.9a3.57,3.57,0,0,0,3.55-3.27l49.18.93ZM152.55,77.45h36.23l-1.74,68-54.35-1V130.51a19.12,19.12,0,0,0-4.19-11.91,8,8,0,0,1-1.76-5.25l.31-10.59.59-27.27Z" class="cls-10"/><g><g class="cls-18"><path d="M227.54,218.05a4,4,0,0,0-.83-2.12,4.11,4.11,0,0,0,.36-2,4,4,0,0,0-1.36-2.71l-.86-.58a4.07,4.07,0,0,0-1.59-.41,3.34,3.34,0,0,0-3-1.63,2.6,2.6,0,0,0-1.79.73l-.83-.56a5.15,5.15,0,0,0-2.62-.51l-1.27.27a5,5,0,0,0-2.1,1.42.39.39,0,0,0-.08.1,4.41,4.41,0,0,0-1.37-.19,3.4,3.4,0,0,0-2,5.9,5.66,5.66,0,0,0-.41,2.55,5.59,5.59,0,0,0,1.87,3.74l1.2.8a5.47,5.47,0,0,0,2.9.56l.12,0a3.69,3.69,0,0,0,2.26.63,2.85,2.85,0,0,0,1.74-.61l.95.05a3.49,3.49,0,0,0,2.24.67,3.07,3.07,0,0,0,2.69-1.88h.19A3.94,3.94,0,0,0,227.54,218.05Z" class="cls-12"/><path d="M216.84,222.83a7,7,0,0,1-.88-13.66,6.78,6.78,0,0,1,.61-.78,5.17,5.17,0,0,0-1.53-.12l-1.27.27a5,5,0,0,0-2.1,1.42.39.39,0,0,0-.08.1,4.41,4.41,0,0,0-1.37-.19,3.4,3.4,0,0,0-2,5.9,5.66,5.66,0,0,0-.41,2.55,5.59,5.59,0,0,0,1.87,3.74l1.2.8a5.47,5.47,0,0,0,2.9.56l.12,0a3.69,3.69,0,0,0,2.26.63,2.85,2.85,0,0,0,1.74-.61l.77,0a7,7,0,0,1-1.2-.66A5.68,5.68,0,0,1,216.84,222.83Z" class="cls-20"/><path d="M220.82,224a6.19,6.19,0,0,1-1.83-.35,3.56,3.56,0,0,0,1.83.54Z" class="cls-20"/></g><polygon points="220.64 220.51 220.49 220.37 218.99 221.39 218.67 218.12 218.17 218.12 217.61 223.69 216.74 223.1 216.59 223.24 217.52 224.6 216.93 230.52 219.91 230.52 219.13 222.72 220.64 220.51" class="cls-5"/></g><g><g class="cls-18"><path d="M236.82,107.74a2.7,2.7,0,0,0-.57-1.47,2.81,2.81,0,0,0-.69-3.28l-.61-.4a2.85,2.85,0,0,0-1.1-.29,2.33,2.33,0,0,0-2.08-1.13,1.81,1.81,0,0,0-1.24.51l-.58-.39a3.59,3.59,0,0,0-1.82-.36l-.88.19a3.37,3.37,0,0,0-1.47,1l-.06.07a2.91,2.91,0,0,0-.95-.13,2.36,2.36,0,0,0-1.42,4.1,3.84,3.84,0,0,0-.28,1.77,3.91,3.91,0,0,0,1.3,2.61l.83.56a3.92,3.92,0,0,0,2,.39l.08,0a2.63,2.63,0,0,0,1.58.44,2,2,0,0,0,1.21-.42l.66,0a2.4,2.4,0,0,0,1.56.47,2.14,2.14,0,0,0,1.87-1.31h.13A2.74,2.74,0,0,0,236.82,107.74Z" class="cls-12"/><path d="M229.38,111.07a4.48,4.48,0,0,1-3.09-7.74,4.6,4.6,0,0,1,2.48-1.77,5.56,5.56,0,0,1,.42-.54,3.74,3.74,0,0,0-1.06-.09l-.88.19a3.37,3.37,0,0,0-1.47,1l-.06.07a2.91,2.91,0,0,0-.95-.13,2.36,2.36,0,0,0-1.42,4.1,3.84,3.84,0,0,0-.28,1.77,3.91,3.91,0,0,0,1.3,2.61l.83.56a3.92,3.92,0,0,0,2,.39l.08,0a2.63,2.63,0,0,0,1.58.44,2,2,0,0,0,1.21-.42l.54,0a4.86,4.86,0,0,1-.84-.46Z" class="cls-20"/><path d="M232.15,111.85a4.47,4.47,0,0,1-1.27-.25,2.36,2.36,0,0,0,1.27.38Z" class="cls-20"/></g><polygon points="232.02 109.45 231.92 109.35 230.88 110.07 230.65 107.79 230.31 107.79 229.92 111.67 229.31 111.25 229.21 111.35 229.85 112.3 229.44 116.42 231.51 116.42 230.97 110.99 232.02 109.45" class="cls-5"/></g><path d="M197.54,111.86a11.69,11.69,0,0,0-12.28,11.67,26.39,26.39,0,0,0,1.57,7.37c2.16,5.77,10.11,22.46,10.11,22.46s8-16.71,10.14-22.5a25.42,25.42,0,0,0,1.54-7.61A11.76,11.76,0,0,0,197.54,111.86Zm-.6,17.33a6.4,6.4,0,1,1,6.4-6.39A6.39,6.39,0,0,1,196.94,129.19Z" class="cls-24"/><g><path d="M282.77,96.91H237.34a6.87,6.87,0,0,0-6.85,6.85v7.11a6.87,6.87,0,0,0,6.85,6.85h18.71l3.7,21.76,3.71-21.76h19.31a6.87,6.87,0,0,0,6.85-6.85v-7.11A6.87,6.87,0,0,0,282.77,96.91Z" class="cls-4"/><g id="Icon-Heart-16" data-name="Icon-Heart"><path id="Fill-18-16" d="M242.24,110.58l-.13-.1c-2.85-2.32-3.61-3.13-3.61-4.46a2,2,0,0,1,2-2,2.27,2.27,0,0,1,1.77.9,2.25,2.25,0,0,1,1.76-.9,2,2,0,0,1,2,2c0,1.33-.76,2.14-3.61,4.46l-.12.1Z" class="cls-17" data-name="Fill-18"/></g><g id="Icon-Heart-17" data-name="Icon-Heart"><path id="Fill-18-17" d="M251,110.58l-.12-.1c-2.85-2.32-3.61-3.13-3.61-4.46a2,2,0,0,1,2-2,2.25,2.25,0,0,1,1.76.9,2.27,2.27,0,0,1,1.77-.9,2,2,0,0,1,2,2c0,1.33-.76,2.14-3.61,4.46l-.13.1Z" class="cls-17" data-name="Fill-18"/></g><g id="Icon-Heart-18" data-name="Icon-Heart"><path id="Fill-18-18" d="M259.75,110.58l-.12-.1c-2.85-2.32-3.62-3.13-3.62-4.46a2,2,0,0,1,2-2,2.25,2.25,0,0,1,1.77.9,2.27,2.27,0,0,1,1.77-.9,2,2,0,0,1,2,2c0,1.33-.77,2.14-3.61,4.46l-.13.1Z" class="cls-17" data-name="Fill-18"/></g><g id="Icon-Heart-19" data-name="Icon-Heart"><path id="Fill-18-19" d="M268.51,110.58l-.13-.1c-2.84-2.32-3.61-3.13-3.61-4.46a2,2,0,0,1,2-2,2.25,2.25,0,0,1,1.77.9,2.25,2.25,0,0,1,1.77-.9,2,2,0,0,1,2,2c0,1.33-.77,2.14-3.62,4.46l-.12.1Z" class="cls-17" data-name="Fill-18"/></g><g class="cls-18"><g id="Icon-Heart-20" data-name="Icon-Heart"><g id="Fill-18-20" data-name="Fill-18"><path d="M277.27,110.58l-.13-.1c-2.84-2.32-3.61-3.13-3.61-4.46a2,2,0,0,1,2-2,2.27,2.27,0,0,1,1.77.9,2.25,2.25,0,0,1,1.76-.9,2,2,0,0,1,2,2c0,1.33-.76,2.14-3.61,4.46l-.12.1Z" class="cls-12"/><path d="M279,104.05a2.25,2.25,0,0,0-1.76.9,2.27,2.27,0,0,0-1.77-.9,2,2,0,0,0-2,2c0,1.33.77,2.14,3.61,4.46l.13.1.12-.1c2.85-2.32,3.61-3.13,3.61-4.46a2,2,0,0,0-2-2Z" class="cls-12"/></g></g></g><g class="cls-19"><path d="M282.77,97.91a5.85,5.85,0,0,1,5.85,5.85v7.11a5.85,5.85,0,0,1-5.85,5.85H262.61l-.14.84-2.72,16-2.72-16-.14-.84H237.34a5.86,5.86,0,0,1-5.85-5.85v-7.11a5.86,5.86,0,0,1,5.85-5.85h45.43m0-1H237.34a6.87,6.87,0,0,0-6.85,6.85v7.11a6.87,6.87,0,0,0,6.85,6.85h18.71l3.7,21.76,3.71-21.76h19.31a6.87,6.87,0,0,0,6.85-6.85v-7.11a6.87,6.87,0,0,0-6.85-6.85Z" class="cls-12"/></g></g><path d="M29.61,261.83H377.67a2,2,0,0,0,1.43-1.91v-5.55a2,2,0,0,0-2-2H283.46a16.49,16.49,0,0,0-25.2-7,16.52,16.52,0,0,0-30.4,7H184.5a16.83,16.83,0,0,0,.28-2.94,16.53,16.53,0,0,0-32.24-5.15,16.52,16.52,0,0,0-26.2,8.09H76.65a16.52,16.52,0,0,0-30.6,0H30.17a2,2,0,0,0-2,2v5.55A2,2,0,0,0,29.61,261.83Z" class="cls-4"/><path d="M29.47,261.83H377.53a2,2,0,0,0,1.43-1.91v-5.55a2,2,0,0,0-2-2H283.33a16.5,16.5,0,0,0-25.21-7,16.51,16.51,0,0,0-30.39,7H184.36a16.83,16.83,0,0,0,.28-2.94,16.53,16.53,0,0,0-32.24-5.15,16.52,16.52,0,0,0-26.2,8.09H76.51a16.52,16.52,0,0,0-30.6,0H30a2,2,0,0,0-2,2v5.55A2,2,0,0,0,29.47,261.83Z" class="cls-5"/><g><g><path d="M231.35,51.28,232.46,50h.74v3.45h-.85V51.3l-.93,1.08h-.14l-.93-1.08v2.15h-.85V50h.74Z" class="cls-25"/><path d="M236,50l1.53,3.45h-.92l-.28-.68h-1.55l-.25.68h-.91L235,50Zm.07,2.17-.55-1.35L235,52.17Z" class="cls-25"/><path d="M241.13,52.4v.75a3.64,3.64,0,0,1-.67.26,2.47,2.47,0,0,1-.69.08,2.73,2.73,0,0,1-.72-.09,2.15,2.15,0,0,1-.57-.27,1.8,1.8,0,0,1-.39-.39,1.83,1.83,0,0,1-.25-.48,1.86,1.86,0,0,1-.07-.52,1.52,1.52,0,0,1,.14-.67,1.81,1.81,0,0,1,.39-.57,2.15,2.15,0,0,1,.66-.4,2.75,2.75,0,0,1,.88-.14,2.44,2.44,0,0,1,1.25.3V51a2.42,2.42,0,0,0-1.19-.36,1.32,1.32,0,0,0-.9.3.93.93,0,0,0-.35.75,1,1,0,0,0,.35.76,1.29,1.29,0,0,0,.88.3,1.39,1.39,0,0,0,.3,0,1.29,1.29,0,0,0,.31-.08l.29-.11Z" class="cls-25"/><path d="M244.92,50v.63h-1.25v2.82h-.86V50.63h-1.25V50Z" class="cls-25"/><path d="M248,52.82v.63h-2.54V50h2.5v.63H246.3v.73h1.57V52H246.3v.83Z" class="cls-25"/><path d="M248.67,50h1.54a1.36,1.36,0,0,1,.51.09,1,1,0,0,1,.36.25,1.22,1.22,0,0,1,.2.32.92.92,0,0,1,.07.36,1,1,0,0,1,0,.3,1.17,1.17,0,0,1-.13.28,1.26,1.26,0,0,1-.22.24,1.07,1.07,0,0,1-.32.16,1.44,1.44,0,0,1-.43.06h-.68v1.39h-.86Zm.86.63v.8h.4a.63.63,0,0,0,.41-.1.36.36,0,0,0,.13-.3.34.34,0,0,0-.15-.31.94.94,0,0,0-.49-.09Z" class="cls-25"/><path d="M253.07,51.94v.67h-1.32v-.67Z" class="cls-25"/><path d="M257.07,50v3.45h-.86V50.63H254.5v2.82h-.86V50Z" class="cls-25"/><path d="M259.93,50l1.46,3.47h-.93l-1-2.52-1.15,2.52h-.87L259.16,50Z" class="cls-25"/><path d="M263.8,50l1.53,3.45h-.92l-.28-.68h-1.55l-.25.68h-.91L262.81,50Zm.07,2.17-.55-1.35-.51,1.35Z" class="cls-25"/><path d="M269.17,50v3.45h-.86v-1.4H266.6v1.4h-.86V50h.86v1.39h1.71V50Z" class="cls-25"/></g><g><path d="M236.86,54.27v.63h-1.58v2.82h-.86V54.27Z" class="cls-25"/><path d="M237.29,57a.44.44,0,0,1,.31-.13.46.46,0,0,1,.31.13.42.42,0,0,1,.13.31.4.4,0,0,1-.13.31.42.42,0,0,1-.31.13.4.4,0,0,1-.31-.13.39.39,0,0,1-.13-.31A.42.42,0,0,1,237.29,57Z" class="cls-25"/><path d="M242.11,54.27v3.45h-.86v-1.4h-1.72v1.4h-.85V54.27h.85v1.39h1.72V54.27Z" class="cls-25"/><path d="M245.42,57.09v.63h-2.54V54.27h2.5v.63h-1.64v.73h1.57v.63h-1.57v.83Z" class="cls-25"/><path d="M246.11,54.27h1.54a1.36,1.36,0,0,1,.51.09,1,1,0,0,1,.36.25,1.22,1.22,0,0,1,.2.32.92.92,0,0,1,.07.36,1,1,0,0,1,0,.3,1.17,1.17,0,0,1-.13.28,1,1,0,0,1-.22.24,1.07,1.07,0,0,1-.32.16,1.44,1.44,0,0,1-.43.06H247v1.39h-.86Zm.86.63v.8h.4a.63.63,0,0,0,.41-.1.36.36,0,0,0,.13-.3.34.34,0,0,0-.15-.31.94.94,0,0,0-.49-.09Z" class="cls-25"/><path d="M254.71,56.05a1.74,1.74,0,0,1-.34,1,2.16,2.16,0,0,1-.4.4,2.08,2.08,0,0,1-.56.27,2.41,2.41,0,0,1-.67.09,2.29,2.29,0,0,1-.76-.12,2,2,0,0,1-.59-.32,1.75,1.75,0,0,1-.39-.47,1.8,1.8,0,0,1-.21-.56h-.53v1.38h-.86V54.27h.86v1.44h.54a1.73,1.73,0,0,1,.42-.82,2.37,2.37,0,0,1,.39-.32,2.18,2.18,0,0,1,.51-.22,2.45,2.45,0,0,1,.62-.07,2.28,2.28,0,0,1,.7.1,1.78,1.78,0,0,1,.55.28,1.9,1.9,0,0,1,.4.4,1.72,1.72,0,0,1,.32,1Zm-1.19.76a1.13,1.13,0,0,0,0-1.53,1.21,1.21,0,0,0-1.57,0,1.13,1.13,0,0,0,0,1.53,1.21,1.21,0,0,0,1.57,0Z" class="cls-25"/><path d="M258.77,54.27v3.45h-.86v-1.4h-1.72v1.4h-.86V54.27h.86v1.39h1.72V54.27Z" class="cls-25"/><path d="M262,54.27v.63H260.4v2.82h-.86V54.27Z" class="cls-25"/><path d="M262.45,54.27H264a1.36,1.36,0,0,1,.51.09,1,1,0,0,1,.36.25,1,1,0,0,1,.2.32.92.92,0,0,1,.07.36,1,1,0,0,1,0,.3,1.17,1.17,0,0,1-.13.28,1,1,0,0,1-.22.24,1,1,0,0,1-.32.16,1.42,1.42,0,0,1-.42.06h-.69v1.39h-.86Zm.86.63v.8h.4a.63.63,0,0,0,.41-.1.33.33,0,0,0,.13-.3.34.34,0,0,0-.15-.31.92.92,0,0,0-.48-.09Z" class="cls-25"/><path d="M269.17,54.27v3.45h-.86V55.64l-2.09,2.08h-.48V54.27h.86v2.16l2.08-2.16Z" class="cls-25"/></g></g><g><path d="M255.73,164.13H210.3a6.87,6.87,0,0,0-6.85,6.85v7.11a6.87,6.87,0,0,0,6.85,6.85H229l3.71,21.76,3.7-21.76h19.32a6.87,6.87,0,0,0,6.85-6.85V171A6.87,6.87,0,0,0,255.73,164.13Z" class="cls-4"/><g id="Icon-Heart-21" data-name="Icon-Heart"><path id="Fill-18-21" d="M215.19,177.8l-.12-.11c-2.85-2.31-3.61-3.12-3.61-4.45a2,2,0,0,1,2-2,2.25,2.25,0,0,1,1.76.9,2.27,2.27,0,0,1,1.77-.9,2,2,0,0,1,2,2c0,1.33-.76,2.14-3.61,4.45l-.13.11Z" class="cls-17" data-name="Fill-18"/></g><g id="Icon-Heart-22" data-name="Icon-Heart"><path id="Fill-18-22" d="M224,177.8l-.12-.11c-2.85-2.31-3.62-3.12-3.62-4.45a2,2,0,0,1,2-2,2.25,2.25,0,0,1,1.77.9,2.27,2.27,0,0,1,1.77-.9,2,2,0,0,1,2,2c0,1.33-.77,2.14-3.61,4.45l-.13.11Z" class="cls-17" data-name="Fill-18"/></g><g id="Icon-Heart-23" data-name="Icon-Heart"><path id="Fill-18-23" d="M232.71,177.8l-.13-.11c-2.84-2.31-3.61-3.12-3.61-4.45a2,2,0,0,1,2-2,2.25,2.25,0,0,1,1.77.9,2.25,2.25,0,0,1,1.77-.9,2,2,0,0,1,2,2c0,1.33-.77,2.14-3.62,4.45l-.12.11Z" class="cls-17" data-name="Fill-18"/></g><g id="Icon-Heart-24" data-name="Icon-Heart"><path id="Fill-18-24" d="M241.47,177.8l-.13-.11c-2.84-2.31-3.61-3.12-3.61-4.45a2,2,0,0,1,2-2,2.27,2.27,0,0,1,1.77.9,2.25,2.25,0,0,1,1.76-.9,2,2,0,0,1,2,2c0,1.33-.77,2.14-3.62,4.45l-.12.11Z" class="cls-17" data-name="Fill-18"/></g><g id="Icon-Heart-25" data-name="Icon-Heart"><path id="Fill-18-25" d="M250.22,177.8l-.12-.11c-2.85-2.31-3.61-3.12-3.61-4.45a2,2,0,0,1,2-2,2.25,2.25,0,0,1,1.76.9,2.27,2.27,0,0,1,1.77-.9,2,2,0,0,1,2,2c0,1.33-.76,2.14-3.61,4.45l-.13.11Z" class="cls-17" data-name="Fill-18"/></g><g class="cls-19"><path d="M255.73,165.13a5.85,5.85,0,0,1,5.85,5.85v7.11a5.85,5.85,0,0,1-5.85,5.85H235.57l-.14.83-2.72,16-2.72-16-.14-.83H210.3a5.86,5.86,0,0,1-5.85-5.85V171a5.86,5.86,0,0,1,5.85-5.85h45.43m0-1H210.3a6.87,6.87,0,0,0-6.85,6.85v7.11a6.87,6.87,0,0,0,6.85,6.85H229l3.71,21.76,3.7-21.76h19.32a6.87,6.87,0,0,0,6.85-6.85V171a6.87,6.87,0,0,0-6.85-6.85Z" class="cls-12"/></g></g></g></g></svg>